<svg width="320" height="200" viewBox="0 0 320 200" fill="none" xmlns="http://www.w3.org/2000/svg">
<rect width="320" height="200" fill="url(#paint0_linear_71_17)"/>
<path d="M82.36 70.536V83.976C82.36 85.32 82.6907 86.3547 83.352 87.08C84.0133 87.8053 84.984 88.168 86.264 88.168C87.544 88.168 88.5253 87.8053 89.208 87.08C89.8907 86.3547 90.232 85.32 90.232 83.976V70.536H95.704V83.944C95.704 85.9493 95.2773 87.6453 94.424 89.032C93.5707 90.4187 92.4187 91.464 90.968 92.168C89.5387 92.872 87.9387 93.224 86.168 93.224C84.3973 93.224 82.808 92.8827 81.4 92.2C80.0133 91.496 78.9147 90.4507 78.104 89.064C77.2933 87.656 76.888 85.9493 76.888 83.944V70.536H82.36ZM105.019 69.32V93H99.5465V69.32H105.019ZM118.936 88.36V93H116.152C114.168 93 112.621 92.52 111.512 91.56C110.403 90.5787 109.848 88.9893 109.848 86.792V79.688H107.672V75.144H109.848V70.792H115.32V75.144H118.904V79.688H115.32V86.856C115.32 87.3893 115.448 87.7733 115.704 88.008C115.96 88.2427 116.387 88.36 116.984 88.36H118.936ZM127.456 78.12C128.096 77.1387 128.896 76.3707 129.856 75.816C130.816 75.24 131.883 74.952 133.056 74.952V80.744H131.552C130.187 80.744 129.163 81.0427 128.48 81.64C127.797 82.216 127.456 83.24 127.456 84.712V93H121.984V75.144H127.456V78.12ZM134.584 84.04C134.584 82.2053 134.925 80.5947 135.608 79.208C136.312 77.8213 137.261 76.7547 138.456 76.008C139.65 75.2613 140.984 74.888 142.456 74.888C143.714 74.888 144.813 75.144 145.752 75.656C146.712 76.168 147.448 76.84 147.96 77.672V75.144H153.432V93H147.96V90.472C147.426 91.304 146.68 91.976 145.72 92.488C144.781 93 143.682 93.256 142.424 93.256C140.973 93.256 139.65 92.8827 138.456 92.136C137.261 91.368 136.312 90.2907 135.608 88.904C134.925 87.496 134.584 85.8747 134.584 84.04ZM147.96 84.072C147.96 82.7067 147.576 81.6293 146.808 80.84C146.061 80.0507 145.144 79.656 144.056 79.656C142.968 79.656 142.04 80.0507 141.272 80.84C140.525 81.608 140.152 82.6747 140.152 84.04C140.152 85.4053 140.525 86.4933 141.272 87.304C142.04 88.0933 142.968 88.488 144.056 88.488C145.144 88.488 146.061 88.0933 146.808 87.304C147.576 86.5147 147.96 85.4373 147.96 84.072ZM162.862 69.32V93H157.39V69.32H162.862ZM185.068 75.144L173.868 101.48H167.98L172.076 92.392L164.812 75.144H170.924L175.052 86.312L179.148 75.144H185.068ZM196.999 88.36V93H194.215C192.231 93 190.684 92.52 189.575 91.56C188.465 90.5787 187.911 88.9893 187.911 86.792V79.688H185.735V75.144H187.911V70.792H193.383V75.144H196.967V79.688H193.383V86.856C193.383 87.3893 193.511 87.7733 193.767 88.008C194.023 88.2427 194.449 88.36 195.047 88.36H196.999ZM202.799 73.288C201.839 73.288 201.049 73.0107 200.431 72.456C199.833 71.88 199.535 71.176 199.535 70.344C199.535 69.4907 199.833 68.7867 200.431 68.232C201.049 67.656 201.839 67.368 202.799 67.368C203.737 67.368 204.505 67.656 205.103 68.232C205.721 68.7867 206.031 69.4907 206.031 70.344C206.031 71.176 205.721 71.88 205.103 72.456C204.505 73.0107 203.737 73.288 202.799 73.288ZM205.519 75.144V93H200.047V75.144H205.519ZM208.396 84.072C208.396 82.216 208.769 80.5947 209.516 79.208C210.284 77.8213 211.34 76.7547 212.684 76.008C214.049 75.2613 215.607 74.888 217.356 74.888C219.596 74.888 221.463 75.4747 222.956 76.648C224.471 77.8213 225.463 79.4747 225.932 81.608H220.108C219.617 80.2427 218.668 79.56 217.26 79.56C216.257 79.56 215.457 79.9547 214.86 80.744C214.263 81.512 213.964 82.6213 213.964 84.072C213.964 85.5227 214.263 86.6427 214.86 87.432C215.457 88.2 216.257 88.584 217.26 88.584C218.668 88.584 219.617 87.9013 220.108 86.536H225.932C225.463 88.6267 224.471 90.2693 222.956 91.464C221.441 92.6587 219.575 93.256 217.356 93.256C215.607 93.256 214.049 92.8827 212.684 92.136C211.34 91.3893 210.284 90.3227 209.516 88.936C208.769 87.5493 208.396 85.928 208.396 84.072ZM236.123 93.256C234.566 93.256 233.179 92.9893 231.963 92.456C230.747 91.9227 229.787 91.1973 229.083 90.28C228.379 89.3413 227.984 88.296 227.899 87.144H233.307C233.371 87.7627 233.659 88.264 234.171 88.648C234.683 89.032 235.312 89.224 236.059 89.224C236.742 89.224 237.264 89.096 237.627 88.84C238.011 88.5627 238.203 88.2107 238.203 87.784C238.203 87.272 237.936 86.8987 237.403 86.664C236.87 86.408 236.006 86.1307 234.811 85.832C233.531 85.5333 232.464 85.224 231.611 84.904C230.758 84.5627 230.022 84.04 229.403 83.336C228.784 82.6107 228.475 81.64 228.475 80.424C228.475 79.4 228.752 78.472 229.307 77.64C229.883 76.7867 230.715 76.1147 231.803 75.624C232.912 75.1333 234.224 74.888 235.739 74.888C237.979 74.888 239.739 75.4427 241.019 76.552C242.32 77.6613 243.067 79.1333 243.259 80.968H238.203C238.118 80.3493 237.84 79.8587 237.371 79.496C236.923 79.1333 236.326 78.952 235.579 78.952C234.939 78.952 234.448 79.08 234.107 79.336C233.766 79.5707 233.595 79.9013 233.595 80.328C233.595 80.84 233.862 81.224 234.395 81.48C234.95 81.736 235.803 81.992 236.955 82.248C238.278 82.5893 239.355 82.9307 240.187 83.272C241.019 83.592 241.744 84.1253 242.363 84.872C243.003 85.5973 243.334 86.5787 243.355 87.816C243.355 88.8613 243.056 89.8 242.459 90.632C241.883 91.4427 241.04 92.0827 239.931 92.552C238.843 93.0213 237.574 93.256 236.123 93.256Z" fill="white"/>
<path d="M108.462 115.832V127H106.222V122.248H101.438V127H99.1978V115.832H101.438V120.424H106.222V115.832H108.462ZM110.09 122.536C110.09 121.64 110.266 120.845 110.618 120.152C110.981 119.459 111.467 118.925 112.075 118.552C112.693 118.179 113.381 117.992 114.139 117.992C114.8 117.992 115.376 118.125 115.867 118.392C116.368 118.659 116.768 118.995 117.067 119.4V118.136H119.323V127H117.067V125.704C116.779 126.12 116.379 126.467 115.867 126.744C115.365 127.011 114.784 127.144 114.123 127.144C113.376 127.144 112.693 126.952 112.075 126.568C111.467 126.184 110.981 125.645 110.618 124.952C110.266 124.248 110.09 123.443 110.09 122.536ZM117.067 122.568C117.067 122.024 116.96 121.56 116.747 121.176C116.533 120.781 116.245 120.483 115.883 120.28C115.52 120.067 115.131 119.96 114.715 119.96C114.299 119.96 113.915 120.061 113.562 120.264C113.211 120.467 112.923 120.765 112.699 121.16C112.485 121.544 112.379 122.003 112.379 122.536C112.379 123.069 112.485 123.539 112.699 123.944C112.923 124.339 113.211 124.643 113.562 124.856C113.925 125.069 114.309 125.176 114.715 125.176C115.131 125.176 115.52 125.075 115.883 124.872C116.245 124.659 116.533 124.36 116.747 123.976C116.96 123.581 117.067 123.112 117.067 122.568ZM126.422 118.008C127.478 118.008 128.332 118.344 128.982 119.016C129.633 119.677 129.958 120.605 129.958 121.8V127H127.718V122.104C127.718 121.4 127.542 120.861 127.19 120.488C126.838 120.104 126.358 119.912 125.75 119.912C125.132 119.912 124.641 120.104 124.278 120.488C123.926 120.861 123.75 121.4 123.75 122.104V127H121.51V118.136H123.75V119.24C124.049 118.856 124.428 118.557 124.886 118.344C125.356 118.12 125.868 118.008 126.422 118.008ZM131.512 122.536C131.512 121.64 131.688 120.845 132.04 120.152C132.403 119.459 132.894 118.925 133.512 118.552C134.131 118.179 134.819 117.992 135.576 117.992C136.152 117.992 136.702 118.12 137.224 118.376C137.747 118.621 138.163 118.952 138.472 119.368V115.16H140.744V127H138.472V125.688C138.195 126.125 137.806 126.477 137.304 126.744C136.803 127.011 136.222 127.144 135.56 127.144C134.814 127.144 134.131 126.952 133.512 126.568C132.894 126.184 132.403 125.645 132.04 124.952C131.688 124.248 131.512 123.443 131.512 122.536ZM138.488 122.568C138.488 122.024 138.382 121.56 138.168 121.176C137.955 120.781 137.667 120.483 137.304 120.28C136.942 120.067 136.552 119.96 136.136 119.96C135.72 119.96 135.336 120.061 134.984 120.264C134.632 120.467 134.344 120.765 134.12 121.16C133.907 121.544 133.8 122.003 133.8 122.536C133.8 123.069 133.907 123.539 134.12 123.944C134.344 124.339 134.632 124.643 134.984 124.856C135.347 125.069 135.731 125.176 136.136 125.176C136.552 125.176 136.942 125.075 137.304 124.872C137.667 124.659 137.955 124.36 138.168 123.976C138.382 123.581 138.488 123.112 138.488 122.568ZM153.049 127L148.985 122.024V127H146.745V115.832H148.985V120.84L153.049 115.832H155.753L151.145 121.368L155.881 127H153.049ZM165.594 122.376C165.594 122.696 165.573 122.984 165.53 123.24H159.05C159.103 123.88 159.327 124.381 159.722 124.744C160.117 125.107 160.602 125.288 161.178 125.288C162.01 125.288 162.602 124.931 162.954 124.216H165.37C165.114 125.069 164.623 125.773 163.898 126.328C163.173 126.872 162.282 127.144 161.226 127.144C160.373 127.144 159.605 126.957 158.922 126.584C158.25 126.2 157.722 125.661 157.338 124.968C156.965 124.275 156.778 123.475 156.778 122.568C156.778 121.651 156.965 120.845 157.338 120.152C157.711 119.459 158.234 118.925 158.906 118.552C159.578 118.179 160.351 117.992 161.226 117.992C162.069 117.992 162.821 118.173 163.482 118.536C164.154 118.899 164.671 119.416 165.034 120.088C165.407 120.749 165.594 121.512 165.594 122.376ZM163.274 121.736C163.263 121.16 163.055 120.701 162.65 120.36C162.245 120.008 161.749 119.832 161.162 119.832C160.607 119.832 160.138 120.003 159.754 120.344C159.381 120.675 159.151 121.139 159.066 121.736H163.274ZM175.709 118.136L170.221 131.192H167.837L169.757 126.776L166.205 118.136H168.717L171.005 124.328L173.325 118.136H175.709ZM179.157 119.416C179.445 119.011 179.839 118.675 180.341 118.408C180.853 118.131 181.434 117.992 182.085 117.992C182.842 117.992 183.525 118.179 184.133 118.552C184.751 118.925 185.237 119.459 185.589 120.152C185.951 120.835 186.133 121.629 186.133 122.536C186.133 123.443 185.951 124.248 185.589 124.952C185.237 125.645 184.751 126.184 184.133 126.568C183.525 126.952 182.842 127.144 182.085 127.144C181.434 127.144 180.858 127.011 180.357 126.744C179.866 126.477 179.466 126.141 179.157 125.736V131.224H176.917V118.136H179.157V119.416ZM183.845 122.536C183.845 122.003 183.733 121.544 183.509 121.16C183.295 120.765 183.007 120.467 182.645 120.264C182.293 120.061 181.909 119.96 181.493 119.96C181.087 119.96 180.703 120.067 180.341 120.28C179.989 120.483 179.701 120.781 179.477 121.176C179.263 121.571 179.157 122.035 179.157 122.568C179.157 123.101 179.263 123.565 179.477 123.96C179.701 124.355 179.989 124.659 180.341 124.872C180.703 125.075 181.087 125.176 181.493 125.176C181.909 125.176 182.293 125.069 182.645 124.856C183.007 124.643 183.295 124.339 183.509 123.944C183.733 123.549 183.845 123.08 183.845 122.536ZM191.696 127.144C190.843 127.144 190.075 126.957 189.392 126.584C188.71 126.2 188.171 125.661 187.776 124.968C187.392 124.275 187.2 123.475 187.2 122.568C187.2 121.661 187.398 120.861 187.792 120.168C188.198 119.475 188.747 118.941 189.44 118.568C190.134 118.184 190.907 117.992 191.76 117.992C192.614 117.992 193.387 118.184 194.08 118.568C194.774 118.941 195.318 119.475 195.712 120.168C196.118 120.861 196.32 121.661 196.32 122.568C196.32 123.475 196.112 124.275 195.696 124.968C195.291 125.661 194.736 126.2 194.032 126.584C193.339 126.957 192.56 127.144 191.696 127.144ZM191.696 125.192C192.102 125.192 192.48 125.096 192.832 124.904C193.195 124.701 193.483 124.403 193.696 124.008C193.91 123.613 194.016 123.133 194.016 122.568C194.016 121.725 193.792 121.08 193.344 120.632C192.907 120.173 192.368 119.944 191.728 119.944C191.088 119.944 190.55 120.173 190.112 120.632C189.686 121.08 189.472 121.725 189.472 122.568C189.472 123.411 189.68 124.061 190.096 124.52C190.523 124.968 191.056 125.192 191.696 125.192ZM199.099 117.08C198.705 117.08 198.374 116.957 198.107 116.712C197.851 116.456 197.723 116.141 197.723 115.768C197.723 115.395 197.851 115.085 198.107 114.84C198.374 114.584 198.705 114.456 199.099 114.456C199.494 114.456 199.819 114.584 200.075 114.84C200.342 115.085 200.475 115.395 200.475 115.768C200.475 116.141 200.342 116.456 200.075 116.712C199.819 116.957 199.494 117.08 199.099 117.08ZM200.203 118.136V127H197.963V118.136H200.203ZM207.329 118.008C208.385 118.008 209.238 118.344 209.889 119.016C210.539 119.677 210.865 120.605 210.865 121.8V127H208.625V122.104C208.625 121.4 208.449 120.861 208.097 120.488C207.745 120.104 207.265 119.912 206.657 119.912C206.038 119.912 205.547 120.104 205.185 120.488C204.833 120.861 204.657 121.4 204.657 122.104V127H202.417V118.136H204.657V119.24C204.955 118.856 205.334 118.557 205.793 118.344C206.262 118.12 206.774 118.008 207.329 118.008ZM215.603 119.976V124.264C215.603 124.563 215.672 124.781 215.811 124.92C215.96 125.048 216.205 125.112 216.547 125.112H217.587V127H216.179C214.291 127 213.347 126.083 213.347 124.248V119.976H212.291V118.136H213.347V115.944H215.603V118.136H217.587V119.976H215.603ZM132.93 129.832C134.103 129.832 135.133 130.061 136.018 130.52C136.914 130.979 137.602 131.635 138.082 132.488C138.573 133.331 138.818 134.312 138.818 135.432C138.818 136.552 138.573 137.533 138.082 138.376C137.602 139.208 136.914 139.853 136.018 140.312C135.133 140.771 134.103 141 132.93 141H129.026V129.832H132.93ZM132.85 139.096C134.023 139.096 134.93 138.776 135.57 138.136C136.21 137.496 136.53 136.595 136.53 135.432C136.53 134.269 136.21 133.363 135.57 132.712C134.93 132.051 134.023 131.72 132.85 131.72H131.266V139.096H132.85ZM139.919 136.536C139.919 135.64 140.095 134.845 140.447 134.152C140.809 133.459 141.295 132.925 141.903 132.552C142.521 132.179 143.209 131.992 143.967 131.992C144.628 131.992 145.204 132.125 145.695 132.392C146.196 132.659 146.596 132.995 146.895 133.4V132.136H149.151V141H146.895V139.704C146.607 140.12 146.207 140.467 145.695 140.744C145.193 141.011 144.612 141.144 143.951 141.144C143.204 141.144 142.521 140.952 141.903 140.568C141.295 140.184 140.809 139.645 140.447 138.952C140.095 138.248 139.919 137.443 139.919 136.536ZM146.895 136.568C146.895 136.024 146.788 135.56 146.575 135.176C146.361 134.781 146.073 134.483 145.711 134.28C145.348 134.067 144.959 133.96 144.543 133.96C144.127 133.96 143.743 134.061 143.391 134.264C143.039 134.467 142.751 134.765 142.527 135.16C142.313 135.544 142.207 136.003 142.207 136.536C142.207 137.069 142.313 137.539 142.527 137.944C142.751 138.339 143.039 138.643 143.391 138.856C143.753 139.069 144.137 139.176 144.543 139.176C144.959 139.176 145.348 139.075 145.711 138.872C146.073 138.659 146.361 138.36 146.575 137.976C146.788 137.581 146.895 137.112 146.895 136.568ZM153.946 133.976V138.264C153.946 138.563 154.016 138.781 154.154 138.92C154.304 139.048 154.549 139.112 154.89 139.112H155.93V141H154.522C152.634 141 151.69 140.083 151.69 138.248V133.976H150.634V132.136H151.69V129.944H153.946V132.136H155.93V133.976H153.946ZM156.965 136.536C156.965 135.64 157.141 134.845 157.493 134.152C157.856 133.459 158.342 132.925 158.95 132.552C159.568 132.179 160.256 131.992 161.014 131.992C161.675 131.992 162.251 132.125 162.742 132.392C163.243 132.659 163.643 132.995 163.942 133.4V132.136H166.198V141H163.942V139.704C163.654 140.12 163.254 140.467 162.742 140.744C162.24 141.011 161.659 141.144 160.998 141.144C160.251 141.144 159.568 140.952 158.95 140.568C158.342 140.184 157.856 139.645 157.493 138.952C157.141 138.248 156.965 137.443 156.965 136.536ZM163.942 136.568C163.942 136.024 163.835 135.56 163.622 135.176C163.408 134.781 163.12 134.483 162.758 134.28C162.395 134.067 162.006 133.96 161.59 133.96C161.174 133.96 160.79 134.061 160.438 134.264C160.086 134.467 159.798 134.765 159.574 135.16C159.36 135.544 159.254 136.003 159.254 136.536C159.254 137.069 159.36 137.539 159.574 137.944C159.798 138.339 160.086 138.643 160.438 138.856C160.8 139.069 161.184 139.176 161.59 139.176C162.006 139.176 162.395 139.075 162.758 138.872C163.12 138.659 163.408 138.36 163.622 137.976C163.835 137.581 163.942 137.112 163.942 136.568ZM171.777 141.144C171.052 141.144 170.401 141.016 169.825 140.76C169.249 140.493 168.791 140.136 168.449 139.688C168.119 139.24 167.937 138.744 167.905 138.2H170.161C170.204 138.541 170.369 138.824 170.657 139.048C170.956 139.272 171.324 139.384 171.761 139.384C172.188 139.384 172.519 139.299 172.753 139.128C172.999 138.957 173.121 138.739 173.121 138.472C173.121 138.184 172.972 137.971 172.673 137.832C172.385 137.683 171.921 137.523 171.281 137.352C170.62 137.192 170.076 137.027 169.649 136.856C169.233 136.685 168.871 136.424 168.561 136.072C168.263 135.72 168.113 135.245 168.113 134.648C168.113 134.157 168.252 133.709 168.529 133.304C168.817 132.899 169.223 132.579 169.745 132.344C170.279 132.109 170.903 131.992 171.617 131.992C172.673 131.992 173.516 132.259 174.145 132.792C174.775 133.315 175.121 134.024 175.185 134.92H173.041C173.009 134.568 172.86 134.291 172.593 134.088C172.337 133.875 171.991 133.768 171.553 133.768C171.148 133.768 170.833 133.843 170.609 133.992C170.396 134.141 170.289 134.349 170.289 134.616C170.289 134.915 170.439 135.144 170.737 135.304C171.036 135.453 171.5 135.608 172.129 135.768C172.769 135.928 173.297 136.093 173.713 136.264C174.129 136.435 174.487 136.701 174.785 137.064C175.095 137.416 175.255 137.885 175.265 138.472C175.265 138.984 175.121 139.443 174.833 139.848C174.556 140.253 174.151 140.573 173.617 140.808C173.095 141.032 172.481 141.144 171.777 141.144ZM185.344 136.376C185.344 136.696 185.323 136.984 185.28 137.24H178.8C178.853 137.88 179.077 138.381 179.472 138.744C179.867 139.107 180.352 139.288 180.928 139.288C181.76 139.288 182.352 138.931 182.704 138.216H185.12C184.864 139.069 184.373 139.773 183.648 140.328C182.923 140.872 182.032 141.144 180.976 141.144C180.123 141.144 179.355 140.957 178.672 140.584C178 140.2 177.472 139.661 177.088 138.968C176.715 138.275 176.528 137.475 176.528 136.568C176.528 135.651 176.715 134.845 177.088 134.152C177.461 133.459 177.984 132.925 178.656 132.552C179.328 132.179 180.101 131.992 180.976 131.992C181.819 131.992 182.571 132.173 183.232 132.536C183.904 132.899 184.421 133.416 184.784 134.088C185.157 134.749 185.344 135.512 185.344 136.376ZM183.024 135.736C183.013 135.16 182.805 134.701 182.4 134.36C181.995 134.008 181.499 133.832 180.912 133.832C180.357 133.832 179.888 134.003 179.504 134.344C179.131 134.675 178.901 135.139 178.816 135.736H183.024ZM189.587 133.976V138.264C189.587 138.563 189.656 138.781 189.795 138.92C189.944 139.048 190.19 139.112 190.531 139.112H191.571V141H190.163C188.275 141 187.331 140.083 187.331 138.248V133.976H186.275V132.136H187.331V129.944H189.587V132.136H191.571V133.976H189.587Z" fill="white"/>
<defs>
<linearGradient id="paint0_linear_71_17" x1="160" y1="0" x2="160" y2="200" gradientUnits="userSpaceOnUse">
<stop stop-color="#3A6DFD"/>
<stop offset="0.47" stop-color="#2E39BD"/>
<stop offset="1" stop-color="#604093"/>
</linearGradient>
</defs>
</svg>
