<svg width="320" height="200" viewBox="0 0 320 200" fill="none" xmlns="http://www.w3.org/2000/svg">
<rect width="320" height="200" fill="#0A0814"/>
<path d="M45.0009 124V78.6669H54.8729V115.232H72.1488V124H45.0009ZM83.7272 86.2657C81.7788 86.2657 80.3499 85.8327 79.4407 84.9668C78.5747 84.0575 78.1417 82.9101 78.1417 81.5246V80.0957C78.1417 78.7102 78.5747 77.5844 79.4407 76.7185C80.3499 75.8092 81.7788 75.3546 83.7272 75.3546C85.6756 75.3546 87.0828 75.8092 87.9488 76.7185C88.858 77.5844 89.3126 78.7102 89.3126 80.0957V81.5246C89.3126 82.9101 88.858 84.0575 87.9488 84.9668C87.0828 85.8327 85.6756 86.2657 83.7272 86.2657ZM78.9211 89.9027H88.5333V124H78.9211V89.9027ZM97.5046 89.9027H107.117V95.6181H107.442C107.918 93.713 109 92.1542 110.689 90.9419C112.421 89.7296 114.391 89.1234 116.599 89.1234C120.929 89.1234 124.198 90.6388 126.406 93.6697C128.614 96.7005 129.718 101.117 129.718 106.919C129.718 112.721 128.614 117.159 126.406 120.233C124.198 123.264 120.929 124.779 116.599 124.779C115.473 124.779 114.413 124.606 113.417 124.26C112.421 123.957 111.512 123.524 110.689 122.961C109.91 122.355 109.238 121.662 108.676 120.883C108.113 120.06 107.701 119.194 107.442 118.285H107.117V136.989H97.5046V89.9027ZM113.417 116.986C115.235 116.986 116.729 116.358 117.898 115.102C119.11 113.803 119.717 112.071 119.717 109.906V103.996C119.717 101.831 119.11 100.121 117.898 98.8655C116.729 97.5665 115.235 96.917 113.417 96.917C111.598 96.917 110.083 97.3717 108.87 98.2809C107.701 99.1469 107.117 100.359 107.117 101.918V111.985C107.117 113.544 107.701 114.778 108.87 115.687C110.083 116.553 111.598 116.986 113.417 116.986ZM152.216 124.779C148.233 124.779 144.855 124.108 142.084 122.766C139.313 121.38 136.953 119.605 135.005 117.44L141.5 110.881C144.574 114.345 148.362 116.076 152.865 116.076C155.29 116.076 157.087 115.579 158.256 114.583C159.425 113.587 160.01 112.266 160.01 110.621C160.01 109.365 159.663 108.326 158.97 107.503C158.278 106.637 156.871 106.053 154.749 105.75L150.268 105.165C145.461 104.559 141.933 103.109 139.681 100.814C137.473 98.5191 136.369 95.4666 136.369 91.6563C136.369 89.6213 136.759 87.7595 137.538 86.0709C138.317 84.3822 139.421 82.9318 140.85 81.7194C142.322 80.5071 144.098 79.5762 146.176 78.9267C148.298 78.2339 150.701 77.8875 153.385 77.8875C156.806 77.8875 159.815 78.4288 162.413 79.5112C165.011 80.5937 167.24 82.174 169.102 84.2523L162.543 90.877C161.46 89.6213 160.14 88.6038 158.581 87.8244C157.065 87.0018 155.139 86.5904 152.801 86.5904C150.592 86.5904 148.947 86.9801 147.865 87.7595C146.782 88.5389 146.241 89.6213 146.241 91.0069C146.241 92.5656 146.652 93.6913 147.475 94.3841C148.341 95.0769 149.726 95.5748 151.631 95.8779L156.113 96.5923C160.789 97.3284 164.253 98.7789 166.504 100.944C168.756 103.065 169.882 106.096 169.882 110.036C169.882 112.201 169.492 114.193 168.713 116.012C167.933 117.83 166.786 119.389 165.27 120.688C163.798 121.987 161.958 123.004 159.75 123.74C157.542 124.433 155.03 124.779 152.216 124.779ZM198.395 89.9027H207.358L194.238 129.261C193.372 131.902 192.138 133.85 190.536 135.106C188.978 136.362 186.726 136.989 183.782 136.989H177.807V129.521H184.236L185.405 125.754L173.455 89.9027H183.002L188.003 105.815L190.471 115.687H190.861L193.394 105.815L198.395 89.9027ZM212.24 124V89.9027H221.853V95.683H222.242C222.848 93.9078 223.909 92.3707 225.425 91.0718C226.94 89.7729 229.04 89.1234 231.724 89.1234C235.232 89.1234 237.873 90.2924 239.648 92.6305C241.467 94.9686 242.376 98.3026 242.376 102.632V124H232.764V103.412C232.764 101.204 232.417 99.5799 231.724 98.5407C231.032 97.4583 229.798 96.917 228.022 96.917C227.243 96.917 226.485 97.0253 225.749 97.2418C225.013 97.415 224.342 97.7181 223.736 98.151C223.173 98.584 222.718 99.1252 222.372 99.7747C222.026 100.381 221.853 101.095 221.853 101.918V124H212.24ZM264.698 124.779C262.144 124.779 259.871 124.368 257.879 123.545C255.887 122.679 254.22 121.489 252.878 119.973C251.536 118.415 250.518 116.531 249.825 114.323C249.133 112.115 248.786 109.647 248.786 106.919C248.786 104.191 249.133 101.745 249.825 99.5799C250.518 97.3717 251.536 95.4882 252.878 93.9295C254.22 92.3707 255.887 91.18 257.879 90.3574C259.871 89.5347 262.144 89.1234 264.698 89.1234C268.162 89.1234 271.042 89.9027 273.336 91.4615C275.674 93.0202 277.341 95.2068 278.337 98.0211L270.544 101.398C270.241 100.099 269.613 98.9953 268.66 98.0861C267.708 97.1768 266.387 96.7222 264.698 96.7222C262.75 96.7222 261.278 97.3717 260.282 98.6706C259.286 99.9263 258.788 101.637 258.788 103.801V110.166C258.788 112.331 259.286 114.041 260.282 115.297C261.278 116.553 262.75 117.181 264.698 117.181C266.43 117.181 267.794 116.726 268.79 115.817C269.829 114.864 270.587 113.63 271.063 112.115L278.532 115.362C277.406 118.609 275.653 120.991 273.271 122.506C270.933 124.022 268.076 124.779 264.698 124.779Z" fill="url(#paint0_linear_34_34)"/>
<defs>
<linearGradient id="paint0_linear_34_34" x1="40" y1="100" x2="280" y2="99.9998" gradientUnits="userSpaceOnUse">
<stop stop-color="#03DAC6"/>
<stop offset="1" stop-color="#BB86FC"/>
</linearGradient>
</defs>
</svg>
