<svg width="320" height="200" viewBox="0 0 320 200" fill="none" xmlns="http://www.w3.org/2000/svg">
<rect x="0.5" y="0.5" width="319" height="199" stroke="black" stroke-linejoin="round"/>
<rect width="320" height="200" fill="white"/>
<rect x="6" y="6" width="308" height="188" rx="10" stroke="black" stroke-width="12" stroke-linejoin="round"/>
<rect x="40" y="55" width="240" height="66.6667" rx="5.33333" fill="black"/>
<path d="M68.2534 103.333L62.024 92.0267H60.2747V103.333H52.9787V73.3814H65.224C67.5849 73.3814 69.5903 73.7938 71.24 74.6187C72.9183 75.4436 74.1698 76.5814 74.9947 78.032C75.8196 79.4543 76.232 81.0472 76.232 82.8107C76.232 84.8018 75.6632 86.5796 74.5254 88.144C73.416 89.7085 71.7663 90.8178 69.576 91.472L76.488 103.333H68.2534ZM60.2747 86.864H64.7974C66.1343 86.864 67.1298 86.5369 67.784 85.8827C68.4667 85.2285 68.808 84.304 68.808 83.1094C68.808 81.9716 68.4667 81.0756 67.784 80.4214C67.1298 79.7672 66.1343 79.44 64.7974 79.44H60.2747V86.864ZM79.3614 91.3867C79.3614 88.9405 79.8165 86.7929 80.7267 84.944C81.6654 83.0952 82.9312 81.6729 84.524 80.6774C86.1169 79.6818 87.8947 79.184 89.8574 79.184C91.5356 79.184 93.0005 79.5254 94.252 80.208C95.532 80.8907 96.5134 81.7867 97.196 82.896V79.5254H104.492V103.333H97.196V99.9627C96.4849 101.072 95.4894 101.968 94.2094 102.651C92.9578 103.333 91.4929 103.675 89.8147 103.675C87.8805 103.675 86.1169 103.177 84.524 102.181C82.9312 101.157 81.6654 99.7209 80.7267 97.872C79.8165 95.9947 79.3614 93.8329 79.3614 91.3867ZM97.196 91.4294C97.196 89.6089 96.684 88.1725 95.66 87.12C94.6645 86.0676 93.4414 85.5414 91.9907 85.5414C90.54 85.5414 89.3027 86.0676 88.2787 87.12C87.2832 88.144 86.7854 89.5663 86.7854 91.3867C86.7854 93.2072 87.2832 94.6578 88.2787 95.7387C89.3027 96.7912 90.54 97.3174 91.9907 97.3174C93.4414 97.3174 94.6645 96.7912 95.66 95.7387C96.684 94.6863 97.196 93.2498 97.196 91.4294ZM121.717 85.584H117.792V103.333H110.496V85.584H107.85V79.5254H110.496V78.8427C110.496 75.9129 111.335 73.6943 113.013 72.1867C114.691 70.6507 117.152 69.8827 120.394 69.8827C120.935 69.8827 121.333 69.8969 121.589 69.9254V76.112C120.195 76.0267 119.214 76.2258 118.645 76.7094C118.076 77.1929 117.792 78.0605 117.792 79.312V79.5254H121.717V85.584ZM138.415 97.1467V103.333H134.703C132.057 103.333 129.995 102.693 128.516 101.413C127.037 100.105 126.297 97.9858 126.297 95.056V85.584H123.396V79.5254H126.297V73.7227H133.593V79.5254H138.372V85.584H133.593V95.1414C133.593 95.8525 133.764 96.3645 134.105 96.6774C134.447 96.9903 135.016 97.1467 135.812 97.1467H138.415ZM141.028 91.3867C141.028 88.9405 141.483 86.7929 142.393 84.944C143.332 83.0952 144.598 81.6729 146.191 80.6774C147.784 79.6818 149.561 79.184 151.524 79.184C153.202 79.184 154.667 79.5254 155.919 80.208C157.199 80.8907 158.18 81.7867 158.863 82.896V79.5254H166.159V103.333H158.863V99.9627C158.152 101.072 157.156 101.968 155.876 102.651C154.624 103.333 153.16 103.675 151.481 103.675C149.547 103.675 147.784 103.177 146.191 102.181C144.598 101.157 143.332 99.7209 142.393 97.872C141.483 95.9947 141.028 93.8329 141.028 91.3867ZM158.863 91.4294C158.863 89.6089 158.351 88.1725 157.327 87.12C156.331 86.0676 155.108 85.5414 153.657 85.5414C152.207 85.5414 150.969 86.0676 149.945 87.12C148.95 88.144 148.452 89.5663 148.452 91.3867C148.452 93.2072 148.95 94.6578 149.945 95.7387C150.969 96.7912 152.207 97.3174 153.657 97.3174C155.108 97.3174 156.331 96.7912 157.327 95.7387C158.351 94.6863 158.863 93.2498 158.863 91.4294ZM169.986 91.3867C169.986 88.9405 170.441 86.7929 171.352 84.944C172.29 83.0952 173.556 81.6729 175.149 80.6774C176.742 79.6818 178.52 79.184 180.482 79.184C182.161 79.184 183.625 79.5254 184.877 80.208C186.157 80.8907 187.138 81.7867 187.821 82.896V79.5254H195.117V103.333H187.821V99.9627C187.11 101.072 186.114 101.968 184.834 102.651C183.583 103.333 182.118 103.675 180.44 103.675C178.505 103.675 176.742 103.177 175.149 102.181C173.556 101.157 172.29 99.7209 171.352 97.872C170.441 95.9947 169.986 93.8329 169.986 91.3867ZM187.821 91.4294C187.821 89.6089 187.309 88.1725 186.285 87.12C185.289 86.0676 184.066 85.5414 182.616 85.5414C181.165 85.5414 179.928 86.0676 178.904 87.12C177.908 88.144 177.41 89.5663 177.41 91.3867C177.41 93.2072 177.908 94.6578 178.904 95.7387C179.928 96.7912 181.165 97.3174 182.616 97.3174C184.066 97.3174 185.289 96.7912 186.285 95.7387C187.309 94.6863 187.821 93.2498 187.821 91.4294ZM207.691 83.4934C208.545 82.1849 209.611 81.1609 210.891 80.4214C212.171 79.6534 213.594 79.2694 215.158 79.2694V86.992H213.153C211.332 86.992 209.967 87.3903 209.057 88.1867C208.146 88.9547 207.691 90.32 207.691 92.2827V103.333H200.395V79.5254H207.691V83.4934ZM222.059 103.675C220.779 103.675 219.726 103.305 218.901 102.565C218.105 101.797 217.707 100.859 217.707 99.7494C217.707 98.6116 218.105 97.6587 218.901 96.8907C219.726 96.1227 220.779 95.7387 222.059 95.7387C223.31 95.7387 224.334 96.1227 225.131 96.8907C225.956 97.6587 226.368 98.6116 226.368 99.7494C226.368 100.859 225.956 101.797 225.131 102.565C224.334 103.305 223.31 103.675 222.059 103.675ZM229.236 91.3867C229.236 88.9405 229.691 86.7929 230.602 84.944C231.54 83.0952 232.806 81.6729 234.399 80.6774C235.992 79.6818 237.77 79.184 239.732 79.184C241.411 79.184 242.875 79.5254 244.127 80.208C245.407 80.8907 246.388 81.7867 247.071 82.896V79.5254H254.367V103.333H247.071V99.9627C246.36 101.072 245.364 101.968 244.084 102.651C242.833 103.333 241.368 103.675 239.69 103.675C237.755 103.675 235.992 103.177 234.399 102.181C232.806 101.157 231.54 99.7209 230.602 97.872C229.691 95.9947 229.236 93.8329 229.236 91.3867ZM247.071 91.4294C247.071 89.6089 246.559 88.1725 245.535 87.12C244.539 86.0676 243.316 85.5414 241.866 85.5414C240.415 85.5414 239.178 86.0676 238.154 87.12C237.158 88.144 236.66 89.5663 236.66 91.3867C236.66 93.2072 237.158 94.6578 238.154 95.7387C239.178 96.7912 240.415 97.3174 241.866 97.3174C243.316 97.3174 244.539 96.7912 245.535 95.7387C246.559 94.6863 247.071 93.2498 247.071 91.4294ZM263.315 77.0507C262.035 77.0507 260.982 76.6809 260.157 75.9414C259.361 75.1734 258.963 74.2347 258.963 73.1254C258.963 71.9876 259.361 71.0489 260.157 70.3094C260.982 69.5414 262.035 69.1574 263.315 69.1574C264.566 69.1574 265.59 69.5414 266.387 70.3094C267.212 71.0489 267.624 71.9876 267.624 73.1254C267.624 74.2347 267.212 75.1734 266.387 75.9414C265.59 76.6809 264.566 77.0507 263.315 77.0507ZM266.941 79.5254V103.333H259.645V79.5254H266.941Z" fill="white"/>
<path d="M122.579 136.653H121.491L122.941 134.232H123.635L122.579 136.653ZM124.307 136.653H123.229L124.68 134.232H125.373L124.307 136.653ZM130.033 140.013H126.78L125.894 141.667H124.87L128.86 134.275H129.98L131.356 141.667H130.332L130.033 140.013ZM129.894 139.256L129.212 135.459L127.185 139.256H129.894ZM134.821 134.232L133.498 141.667H132.527L133.85 134.232H134.821ZM141.945 134.328C141.512 134.328 141.192 134.413 140.985 134.584C140.786 134.748 140.655 135.021 140.591 135.405L140.516 135.821H141.743L141.604 136.621H140.377L139.481 141.667H138.511L139.396 136.621H138.649L138.788 135.821H139.535L139.609 135.405C139.73 134.751 139.986 134.275 140.377 133.976C140.769 133.67 141.337 133.517 142.084 133.517L141.945 134.328ZM144.41 141.763C143.92 141.763 143.486 141.663 143.109 141.464C142.739 141.258 142.451 140.973 142.245 140.611C142.039 140.241 141.936 139.814 141.936 139.331C141.936 138.669 142.089 138.065 142.394 137.517C142.7 136.963 143.12 136.525 143.653 136.205C144.194 135.885 144.794 135.725 145.456 135.725C145.946 135.725 146.38 135.828 146.757 136.035C147.141 136.234 147.436 136.518 147.642 136.888C147.856 137.251 147.962 137.677 147.962 138.168C147.962 138.829 147.806 139.434 147.493 139.981C147.18 140.529 146.754 140.963 146.213 141.283C145.673 141.603 145.072 141.763 144.41 141.763ZM144.528 140.941C144.99 140.941 145.406 140.817 145.776 140.568C146.146 140.312 146.434 139.978 146.64 139.565C146.853 139.146 146.96 138.698 146.96 138.221C146.96 137.681 146.803 137.268 146.49 136.984C146.178 136.692 145.786 136.547 145.317 136.547C144.855 136.547 144.442 136.675 144.08 136.931C143.717 137.18 143.436 137.514 143.237 137.933C143.038 138.353 142.938 138.804 142.938 139.288C142.938 139.814 143.088 140.223 143.386 140.515C143.685 140.799 144.066 140.941 144.528 140.941ZM150.476 136.931C150.711 136.547 151.006 136.248 151.361 136.035C151.717 135.821 152.122 135.715 152.577 135.715L152.396 136.717H152.14C151.635 136.717 151.212 136.852 150.871 137.123C150.537 137.393 150.313 137.848 150.199 138.488L149.633 141.667H148.663L149.697 135.821H150.668L150.476 136.931ZM155.968 138.733C156.075 138.129 156.288 137.603 156.608 137.155C156.935 136.7 157.337 136.348 157.814 136.099C158.29 135.85 158.806 135.725 159.36 135.725C160.079 135.725 160.637 135.9 161.035 136.248C161.44 136.596 161.664 137.08 161.707 137.699H160.662C160.626 137.343 160.48 137.062 160.224 136.856C159.975 136.65 159.638 136.547 159.211 136.547C158.656 136.547 158.173 136.739 157.76 137.123C157.355 137.5 157.092 138.036 156.971 138.733C156.935 138.968 156.918 139.164 156.918 139.32C156.918 139.839 157.056 140.241 157.334 140.525C157.611 140.803 157.981 140.941 158.443 140.941C158.87 140.941 159.239 140.842 159.552 140.643C159.872 140.444 160.118 140.159 160.288 139.789H161.334C161.078 140.387 160.683 140.867 160.15 141.229C159.616 141.585 158.998 141.763 158.294 141.763C157.561 141.763 156.978 141.553 156.544 141.133C156.118 140.714 155.904 140.141 155.904 139.416C155.904 139.196 155.926 138.968 155.968 138.733ZM166.255 135.715C166.839 135.715 167.308 135.878 167.663 136.205C168.019 136.525 168.197 136.991 168.197 137.603C168.197 137.83 168.179 138.036 168.143 138.221L167.535 141.667H166.575L167.162 138.36C167.191 138.211 167.205 138.054 167.205 137.891C167.205 137.457 167.084 137.126 166.842 136.899C166.607 136.671 166.277 136.557 165.85 136.557C165.338 136.557 164.901 136.717 164.538 137.037C164.183 137.357 163.951 137.823 163.845 138.435V138.413L163.269 141.667H162.298L163.695 133.773H164.666L164.154 136.664C164.396 136.365 164.702 136.134 165.071 135.971C165.448 135.8 165.843 135.715 166.255 135.715ZM169.27 138.723C169.377 138.125 169.59 137.603 169.91 137.155C170.238 136.7 170.632 136.348 171.094 136.099C171.564 135.85 172.062 135.725 172.588 135.725C173.1 135.725 173.523 135.836 173.857 136.056C174.191 136.276 174.422 136.554 174.55 136.888L174.742 135.821H175.724L174.689 141.667H173.708L173.91 140.579C173.654 140.92 173.317 141.204 172.897 141.432C172.478 141.652 172.015 141.763 171.51 141.763C171.055 141.763 170.654 141.667 170.305 141.475C169.957 141.276 169.686 140.995 169.494 140.632C169.302 140.269 169.206 139.85 169.206 139.373C169.206 139.16 169.228 138.943 169.27 138.723ZM174.23 138.733C174.259 138.584 174.273 138.424 174.273 138.253C174.273 137.734 174.117 137.325 173.804 137.027C173.498 136.721 173.107 136.568 172.63 136.568C172.268 136.568 171.919 136.653 171.585 136.824C171.258 136.995 170.977 137.244 170.742 137.571C170.508 137.898 170.351 138.282 170.273 138.723C170.245 138.872 170.23 139.036 170.23 139.213C170.23 139.74 170.383 140.156 170.689 140.461C170.995 140.76 171.386 140.909 171.862 140.909C172.225 140.909 172.57 140.824 172.897 140.653C173.231 140.476 173.516 140.223 173.75 139.896C173.992 139.562 174.152 139.174 174.23 138.733ZM178.697 133.773L177.3 141.667H176.329L177.727 133.773H178.697ZM181.322 133.773L179.925 141.667H178.954L180.352 133.773H181.322ZM181.729 138.723C181.835 138.125 182.049 137.603 182.369 137.155C182.696 136.7 183.091 136.348 183.553 136.099C184.022 135.85 184.52 135.725 185.046 135.725C185.558 135.725 185.981 135.836 186.315 136.056C186.65 136.276 186.881 136.554 187.009 136.888L187.201 135.821H188.182L187.147 141.667H186.166L186.369 140.579C186.113 140.92 185.775 141.204 185.355 141.432C184.936 141.652 184.474 141.763 183.969 141.763C183.514 141.763 183.112 141.667 182.763 141.475C182.415 141.276 182.145 140.995 181.953 140.632C181.761 140.269 181.665 139.85 181.665 139.373C181.665 139.16 181.686 138.943 181.729 138.723ZM186.689 138.733C186.717 138.584 186.731 138.424 186.731 138.253C186.731 137.734 186.575 137.325 186.262 137.027C185.956 136.721 185.565 136.568 185.089 136.568C184.726 136.568 184.378 136.653 184.043 136.824C183.716 136.995 183.435 137.244 183.201 137.571C182.966 137.898 182.81 138.282 182.731 138.723C182.703 138.872 182.689 139.036 182.689 139.213C182.689 139.74 182.842 140.156 183.147 140.461C183.453 140.76 183.844 140.909 184.321 140.909C184.683 140.909 185.028 140.824 185.355 140.653C185.69 140.476 185.974 140.223 186.209 139.896C186.451 139.562 186.611 139.174 186.689 138.733ZM192.692 135.715C193.296 135.715 193.78 135.878 194.142 136.205C194.505 136.525 194.686 136.995 194.686 137.613C194.686 137.841 194.669 138.044 194.633 138.221L194.025 141.667H193.065L193.652 138.36C193.68 138.211 193.694 138.054 193.694 137.891C193.694 137.457 193.574 137.126 193.332 136.899C193.097 136.671 192.766 136.557 192.34 136.557C191.828 136.557 191.39 136.717 191.028 137.037C190.672 137.357 190.441 137.823 190.334 138.435V138.413L189.758 141.667H188.788L189.822 135.821H190.793L190.644 136.664C190.886 136.358 191.188 136.124 191.55 135.96C191.913 135.796 192.294 135.715 192.692 135.715ZM197.232 134.232H198.32L196.869 136.653H196.176L197.232 134.232ZM198.971 134.232H200.059L198.608 136.653H197.915L198.971 134.232Z" fill="black"/>
</svg>
