<svg width="320" height="200" viewBox="0 0 320 200" fill="none" xmlns="http://www.w3.org/2000/svg">
<rect width="320" height="200" fill="#3498DB"/>
<path d="M37.112 111.224C35.4693 111.224 33.9973 110.957 32.696 110.424C31.3947 109.891 30.3493 109.101 29.56 108.056C28.792 107.011 28.3867 105.752 28.344 104.28H34.168C34.2533 105.112 34.5413 105.752 35.032 106.2C35.5227 106.627 36.1627 106.84 36.952 106.84C37.7627 106.84 38.4027 106.659 38.872 106.296C39.3413 105.912 39.576 105.389 39.576 104.728C39.576 104.173 39.384 103.715 39 103.352C38.6373 102.989 38.1787 102.691 37.624 102.456C37.0907 102.221 36.3227 101.955 35.32 101.656C33.8693 101.208 32.6853 100.76 31.768 100.312C30.8507 99.864 30.0613 99.2027 29.4 98.328C28.7387 97.4533 28.408 96.312 28.408 94.904C28.408 92.8133 29.1653 91.1813 30.68 90.008C32.1947 88.8133 34.168 88.216 36.6 88.216C39.0747 88.216 41.0693 88.8133 42.584 90.008C44.0987 91.1813 44.9093 92.824 45.016 94.936H39.096C39.0533 94.2107 38.7867 93.6453 38.296 93.24C37.8053 92.8133 37.176 92.6 36.408 92.6C35.7467 92.6 35.2133 92.7813 34.808 93.144C34.4027 93.4853 34.2 93.9867 34.2 94.648C34.2 95.3733 34.5413 95.9387 35.224 96.344C35.9067 96.7493 36.9733 97.1867 38.424 97.656C39.8747 98.1467 41.048 98.616 41.944 99.064C42.8613 99.512 43.6507 100.163 44.312 101.016C44.9733 101.869 45.304 102.968 45.304 104.312C45.304 105.592 44.9733 106.755 44.312 107.8C43.672 108.845 42.7333 109.677 41.496 110.296C40.2587 110.915 38.7973 111.224 37.112 111.224ZM65.5035 101.784C65.5035 102.296 65.4715 102.829 65.4075 103.384H53.0235C53.1088 104.493 53.4608 105.347 54.0795 105.944C54.7195 106.52 55.4982 106.808 56.4155 106.808C57.7808 106.808 58.7302 106.232 59.2635 105.08H65.0875C64.7888 106.253 64.2448 107.309 63.4555 108.248C62.6875 109.187 61.7168 109.923 60.5435 110.456C59.3702 110.989 58.0582 111.256 56.6075 111.256C54.8582 111.256 53.3008 110.883 51.9355 110.136C50.5702 109.389 49.5035 108.323 48.7355 106.936C47.9675 105.549 47.5835 103.928 47.5835 102.072C47.5835 100.216 47.9568 98.5947 48.7035 97.208C49.4715 95.8213 50.5382 94.7547 51.9035 94.008C53.2688 93.2613 54.8368 92.888 56.6075 92.888C58.3355 92.888 59.8715 93.2507 61.2155 93.976C62.5595 94.7013 63.6048 95.736 64.3515 97.08C65.1195 98.424 65.5035 99.992 65.5035 101.784ZM59.9035 100.344C59.9035 99.4053 59.5835 98.6587 58.9435 98.104C58.3035 97.5493 57.5035 97.272 56.5435 97.272C55.6262 97.272 54.8475 97.5387 54.2075 98.072C53.5888 98.6053 53.2048 99.3627 53.0555 100.344H59.9035ZM75.1743 92.888C76.4329 92.888 77.5316 93.144 78.4703 93.656C79.4303 94.168 80.1663 94.84 80.6783 95.672V93.144H86.1503V110.968C86.1503 112.611 85.8196 114.093 85.1583 115.416C84.5183 116.76 83.5263 117.827 82.1823 118.616C80.8596 119.405 79.2063 119.8 77.2223 119.8C74.5769 119.8 72.4329 119.171 70.7903 117.912C69.1476 116.675 68.2089 114.989 67.9743 112.856H73.3823C73.5529 113.539 73.9583 114.072 74.5983 114.456C75.2383 114.861 76.0276 115.064 76.9663 115.064C78.0969 115.064 78.9929 114.733 79.6543 114.072C80.3369 113.432 80.6783 112.397 80.6783 110.968V108.44C80.1449 109.272 79.4089 109.955 78.4703 110.488C77.5316 111 76.4329 111.256 75.1743 111.256C73.7023 111.256 72.3689 110.883 71.1743 110.136C69.9796 109.368 69.0303 108.291 68.3263 106.904C67.6436 105.496 67.3023 103.875 67.3023 102.04C67.3023 100.205 67.6436 98.5947 68.3263 97.208C69.0303 95.8213 69.9796 94.7547 71.1743 94.008C72.3689 93.2613 73.7023 92.888 75.1743 92.888ZM80.6783 102.072C80.6783 100.707 80.2943 99.6293 79.5263 98.84C78.7796 98.0507 77.8623 97.656 76.7743 97.656C75.6863 97.656 74.7583 98.0507 73.9903 98.84C73.2436 99.608 72.8703 100.675 72.8703 102.04C72.8703 103.405 73.2436 104.493 73.9903 105.304C74.7583 106.093 75.6863 106.488 76.7743 106.488C77.8623 106.488 78.7796 106.093 79.5263 105.304C80.2943 104.515 80.6783 103.437 80.6783 102.072ZM112.893 92.952C115.112 92.952 116.872 93.624 118.173 94.968C119.496 96.312 120.157 98.1787 120.157 100.568V111H114.717V101.304C114.717 100.152 114.408 99.2667 113.789 98.648C113.192 98.008 112.36 97.688 111.293 97.688C110.226 97.688 109.384 98.008 108.765 98.648C108.168 99.2667 107.869 100.152 107.869 101.304V111H102.429V101.304C102.429 100.152 102.12 99.2667 101.501 98.648C100.904 98.008 100.072 97.688 99.005 97.688C97.9383 97.688 97.0957 98.008 96.477 98.648C95.8797 99.2667 95.581 100.152 95.581 101.304V111H90.109V93.144H95.581V95.384C96.1357 94.6373 96.861 94.0507 97.757 93.624C98.653 93.176 99.6663 92.952 100.797 92.952C102.141 92.952 103.336 93.24 104.381 93.816C105.448 94.392 106.28 95.2133 106.877 96.28C107.496 95.2987 108.338 94.4987 109.405 93.88C110.472 93.2613 111.634 92.952 112.893 92.952ZM140.816 101.784C140.816 102.296 140.784 102.829 140.72 103.384H128.336C128.421 104.493 128.773 105.347 129.392 105.944C130.032 106.52 130.811 106.808 131.728 106.808C133.093 106.808 134.043 106.232 134.576 105.08H140.4C140.101 106.253 139.557 107.309 138.768 108.248C138 109.187 137.029 109.923 135.856 110.456C134.683 110.989 133.371 111.256 131.92 111.256C130.171 111.256 128.613 110.883 127.248 110.136C125.883 109.389 124.816 108.323 124.048 106.936C123.28 105.549 122.896 103.928 122.896 102.072C122.896 100.216 123.269 98.5947 124.016 97.208C124.784 95.8213 125.851 94.7547 127.216 94.008C128.581 93.2613 130.149 92.888 131.92 92.888C133.648 92.888 135.184 93.2507 136.528 93.976C137.872 94.7013 138.917 95.736 139.664 97.08C140.432 98.424 140.816 99.992 140.816 101.784ZM135.216 100.344C135.216 99.4053 134.896 98.6587 134.256 98.104C133.616 97.5493 132.816 97.272 131.856 97.272C130.939 97.272 130.16 97.5387 129.52 98.072C128.901 98.6053 128.517 99.3627 128.368 100.344H135.216ZM154.583 92.952C156.673 92.952 158.337 93.6347 159.575 95C160.833 96.344 161.463 98.2 161.463 100.568V111H156.023V101.304C156.023 100.109 155.713 99.1813 155.095 98.52C154.476 97.8587 153.644 97.528 152.599 97.528C151.553 97.528 150.721 97.8587 150.103 98.52C149.484 99.1813 149.175 100.109 149.175 101.304V111H143.703V93.144H149.175V95.512C149.729 94.7227 150.476 94.104 151.415 93.656C152.353 93.1867 153.409 92.952 154.583 92.952ZM175.217 106.36V111H172.433C170.449 111 168.903 110.52 167.793 109.56C166.684 108.579 166.129 106.989 166.129 104.792V97.688H163.953V93.144H166.129V88.792H171.601V93.144H175.185V97.688H171.601V104.856C171.601 105.389 171.729 105.773 171.985 106.008C172.241 106.243 172.668 106.36 173.265 106.36H175.217ZM186.393 111.224C184.751 111.224 183.279 110.957 181.977 110.424C180.676 109.891 179.631 109.101 178.841 108.056C178.073 107.011 177.668 105.752 177.625 104.28H183.449C183.535 105.112 183.823 105.752 184.313 106.2C184.804 106.627 185.444 106.84 186.233 106.84C187.044 106.84 187.684 106.659 188.153 106.296C188.623 105.912 188.857 105.389 188.857 104.728C188.857 104.173 188.665 103.715 188.281 103.352C187.919 102.989 187.46 102.691 186.905 102.456C186.372 102.221 185.604 101.955 184.601 101.656C183.151 101.208 181.967 100.76 181.049 100.312C180.132 99.864 179.343 99.2027 178.681 98.328C178.02 97.4533 177.689 96.312 177.689 94.904C177.689 92.8133 178.447 91.1813 179.961 90.008C181.476 88.8133 183.449 88.216 185.881 88.216C188.356 88.216 190.351 88.8133 191.865 90.008C193.38 91.1813 194.191 92.824 194.297 94.936H188.377C188.335 94.2107 188.068 93.6453 187.577 93.24C187.087 92.8133 186.457 92.6 185.689 92.6C185.028 92.6 184.495 92.7813 184.089 93.144C183.684 93.4853 183.481 93.9867 183.481 94.648C183.481 95.3733 183.823 95.9387 184.505 96.344C185.188 96.7493 186.255 97.1867 187.705 97.656C189.156 98.1467 190.329 98.616 191.225 99.064C192.143 99.512 192.932 100.163 193.593 101.016C194.255 101.869 194.585 102.968 194.585 104.312C194.585 105.592 194.255 106.755 193.593 107.8C192.953 108.845 192.015 109.677 190.777 110.296C189.54 110.915 188.079 111.224 186.393 111.224ZM203.425 95.672C203.958 94.84 204.694 94.168 205.633 93.656C206.571 93.144 207.67 92.888 208.929 92.888C210.401 92.888 211.734 93.2613 212.929 94.008C214.123 94.7547 215.062 95.8213 215.745 97.208C216.449 98.5947 216.801 100.205 216.801 102.04C216.801 103.875 216.449 105.496 215.745 106.904C215.062 108.291 214.123 109.368 212.929 110.136C211.734 110.883 210.401 111.256 208.929 111.256C207.691 111.256 206.593 111 205.633 110.488C204.694 109.976 203.958 109.315 203.425 108.504V119.512H197.953V93.144H203.425V95.672ZM211.233 102.04C211.233 100.675 210.849 99.608 210.081 98.84C209.334 98.0507 208.406 97.656 207.297 97.656C206.209 97.656 205.281 98.0507 204.513 98.84C203.766 99.6293 203.393 100.707 203.393 102.072C203.393 103.437 203.766 104.515 204.513 105.304C205.281 106.093 206.209 106.488 207.297 106.488C208.385 106.488 209.313 106.093 210.081 105.304C210.849 104.493 211.233 103.405 211.233 102.04ZM230.648 92.952C232.696 92.952 234.338 93.6347 235.576 95C236.813 96.344 237.432 98.2 237.432 100.568V111H231.992V101.304C231.992 100.109 231.682 99.1813 231.064 98.52C230.445 97.8587 229.613 97.528 228.568 97.528C227.522 97.528 226.69 97.8587 226.072 98.52C225.453 99.1813 225.144 100.109 225.144 101.304V111H219.672V87.32H225.144V95.544C225.698 94.7547 226.456 94.1253 227.416 93.656C228.376 93.1867 229.453 92.952 230.648 92.952ZM258.066 101.784C258.066 102.296 258.034 102.829 257.97 103.384H245.586C245.671 104.493 246.023 105.347 246.642 105.944C247.282 106.52 248.061 106.808 248.978 106.808C250.343 106.808 251.293 106.232 251.826 105.08H257.65C257.351 106.253 256.807 107.309 256.018 108.248C255.25 109.187 254.279 109.923 253.106 110.456C251.933 110.989 250.621 111.256 249.17 111.256C247.421 111.256 245.863 110.883 244.498 110.136C243.133 109.389 242.066 108.323 241.298 106.936C240.53 105.549 240.146 103.928 240.146 102.072C240.146 100.216 240.519 98.5947 241.266 97.208C242.034 95.8213 243.101 94.7547 244.466 94.008C245.831 93.2613 247.399 92.888 249.17 92.888C250.898 92.888 252.434 93.2507 253.778 93.976C255.122 94.7013 256.167 95.736 256.914 97.08C257.682 98.424 258.066 99.992 258.066 101.784ZM252.466 100.344C252.466 99.4053 252.146 98.6587 251.506 98.104C250.866 97.5493 250.066 97.272 249.106 97.272C248.189 97.272 247.41 97.5387 246.77 98.072C246.151 98.6053 245.767 99.3627 245.618 100.344H252.466ZM266.425 96.12C267.065 95.1387 267.865 94.3707 268.825 93.816C269.785 93.24 270.851 92.952 272.025 92.952V98.744H270.521C269.155 98.744 268.131 99.0427 267.449 99.64C266.766 100.216 266.425 101.24 266.425 102.712V111H260.953V93.144H266.425V96.12ZM291.472 101.784C291.472 102.296 291.44 102.829 291.376 103.384H278.992C279.078 104.493 279.43 105.347 280.048 105.944C280.688 106.52 281.467 106.808 282.384 106.808C283.75 106.808 284.699 106.232 285.232 105.08H291.056C290.758 106.253 290.214 107.309 289.424 108.248C288.656 109.187 287.686 109.923 286.512 110.456C285.339 110.989 284.027 111.256 282.576 111.256C280.827 111.256 279.27 110.883 277.904 110.136C276.539 109.389 275.472 108.323 274.704 106.936C273.936 105.549 273.552 103.928 273.552 102.072C273.552 100.216 273.926 98.5947 274.672 97.208C275.44 95.8213 276.507 94.7547 277.872 94.008C279.238 93.2613 280.806 92.888 282.576 92.888C284.304 92.888 285.84 93.2507 287.184 93.976C288.528 94.7013 289.574 95.736 290.32 97.08C291.088 98.424 291.472 99.992 291.472 101.784ZM285.872 100.344C285.872 99.4053 285.552 98.6587 284.912 98.104C284.272 97.5493 283.472 97.272 282.512 97.272C281.595 97.272 280.816 97.5387 280.176 98.072C279.558 98.6053 279.174 99.3627 279.024 100.344H285.872Z" fill="white"/>
</svg>
