<svg width="320" height="201" viewBox="0 0 320 201" fill="none" xmlns="http://www.w3.org/2000/svg">
<rect x="0.5" y="0.5" width="319" height="199" stroke="black" stroke-linejoin="round"/>
<rect width="320" height="200" fill="white"/>
<rect x="6" y="6" width="308" height="189" rx="10" stroke="#3499A3" stroke-width="12" stroke-linejoin="round"/>
<path d="M69.4796 137.013C67.7877 137.013 66.2716 136.738 64.9313 136.189C63.591 135.639 62.5144 134.826 61.7014 133.75C60.9105 132.673 60.493 131.377 60.449 129.861H66.4474C66.5353 130.718 66.8319 131.377 67.3373 131.838C67.8426 132.278 68.5018 132.497 69.3148 132.497C70.1497 132.497 70.8089 132.311 71.2922 131.937C71.7756 131.542 72.0173 131.003 72.0173 130.322C72.0173 129.751 71.8196 129.278 71.4241 128.905C71.0506 128.531 70.5782 128.224 70.0069 127.982C69.4576 127.74 68.6666 127.466 67.6339 127.158C66.1398 126.697 64.9204 126.235 63.9756 125.774C63.0308 125.312 62.2178 124.631 61.5367 123.73C60.8555 122.83 60.515 121.654 60.515 120.204C60.515 118.051 61.295 116.37 62.855 115.161C64.415 113.931 66.4474 113.316 68.9522 113.316C71.501 113.316 73.5554 113.931 75.1154 115.161C76.6754 116.37 77.5103 118.062 77.6202 120.237H71.523C71.479 119.49 71.2044 118.908 70.699 118.49C70.1936 118.051 69.5455 117.831 68.7545 117.831C68.0733 117.831 67.524 118.018 67.1066 118.391C66.6891 118.743 66.4804 119.259 66.4804 119.94C66.4804 120.687 66.8319 121.27 67.535 121.687C68.2381 122.105 69.3367 122.555 70.8308 123.038C72.3249 123.544 73.5334 124.027 74.4562 124.489C75.401 124.95 76.214 125.62 76.8951 126.499C77.5763 127.378 77.9168 128.509 77.9168 129.894C77.9168 131.212 77.5763 132.409 76.8951 133.486C76.236 134.563 75.2692 135.42 73.9948 136.057C72.7204 136.694 71.2153 137.013 69.4796 137.013ZM91.6351 132.003V136.782H88.7677C86.7243 136.782 85.1314 136.287 83.9888 135.299C82.8463 134.288 82.275 132.651 82.275 130.388V123.071H80.0339V118.391H82.275V113.909H87.9108V118.391H91.6021V123.071H87.9108V130.454C87.9108 131.003 88.0427 131.399 88.3063 131.64C88.57 131.882 89.0094 132.003 89.6247 132.003H91.6351ZM100.41 121.456C101.069 120.446 101.893 119.655 102.882 119.083C103.871 118.49 104.969 118.194 106.178 118.194V124.159H104.629C103.223 124.159 102.168 124.467 101.465 125.082C100.762 125.675 100.41 126.73 100.41 128.246V136.782H94.7743V118.391H100.41V121.456ZM126.208 127.29C126.208 127.817 126.175 128.367 126.109 128.938H113.354C113.442 130.08 113.804 130.959 114.442 131.574C115.101 132.168 115.903 132.464 116.847 132.464C118.254 132.464 119.231 131.871 119.781 130.685H125.779C125.472 131.893 124.911 132.981 124.098 133.947C123.307 134.914 122.308 135.672 121.099 136.222C119.891 136.771 118.539 137.046 117.045 137.046C115.244 137.046 113.64 136.661 112.233 135.892C110.827 135.123 109.729 134.024 108.938 132.596C108.147 131.168 107.751 129.498 107.751 127.587C107.751 125.675 108.136 124.005 108.905 122.577C109.696 121.149 110.794 120.05 112.2 119.281C113.607 118.512 115.222 118.128 117.045 118.128C118.825 118.128 120.407 118.501 121.791 119.248C123.175 119.995 124.252 121.061 125.021 122.445C125.812 123.829 126.208 125.444 126.208 127.29ZM120.44 125.807C120.44 124.84 120.11 124.071 119.451 123.5C118.792 122.928 117.968 122.643 116.979 122.643C116.035 122.643 115.233 122.918 114.573 123.467C113.936 124.016 113.541 124.796 113.387 125.807H120.44ZM136.662 137.046C135.058 137.046 133.63 136.771 132.378 136.222C131.125 135.672 130.137 134.925 129.411 133.98C128.686 133.014 128.28 131.937 128.192 130.751H133.762C133.828 131.388 134.124 131.904 134.652 132.3C135.179 132.695 135.827 132.893 136.596 132.893C137.299 132.893 137.838 132.761 138.211 132.497C138.607 132.212 138.805 131.849 138.805 131.41C138.805 130.882 138.53 130.498 137.981 130.256C137.431 129.992 136.541 129.707 135.311 129.399C133.993 129.092 132.894 128.773 132.015 128.443C131.136 128.092 130.378 127.554 129.741 126.829C129.104 126.081 128.785 125.082 128.785 123.829C128.785 122.775 129.071 121.819 129.642 120.962C130.235 120.083 131.092 119.391 132.213 118.886C133.355 118.38 134.707 118.128 136.267 118.128C138.574 118.128 140.387 118.699 141.705 119.841C143.045 120.984 143.814 122.5 144.012 124.39H138.805C138.717 123.752 138.431 123.247 137.948 122.874C137.486 122.5 136.871 122.313 136.102 122.313C135.443 122.313 134.937 122.445 134.586 122.709C134.234 122.95 134.059 123.291 134.059 123.73C134.059 124.258 134.333 124.653 134.883 124.917C135.454 125.181 136.333 125.444 137.519 125.708C138.881 126.06 139.991 126.411 140.848 126.763C141.705 127.092 142.452 127.641 143.089 128.411C143.748 129.158 144.089 130.168 144.111 131.443C144.111 132.519 143.803 133.486 143.188 134.343C142.595 135.178 141.727 135.837 140.584 136.32C139.464 136.804 138.156 137.046 136.662 137.046ZM155.04 137.046C153.436 137.046 152.008 136.771 150.756 136.222C149.503 135.672 148.515 134.925 147.789 133.98C147.064 133.014 146.658 131.937 146.57 130.751H152.14C152.206 131.388 152.502 131.904 153.03 132.3C153.557 132.695 154.205 132.893 154.974 132.893C155.677 132.893 156.216 132.761 156.589 132.497C156.985 132.212 157.183 131.849 157.183 131.41C157.183 130.882 156.908 130.498 156.359 130.256C155.809 129.992 154.919 129.707 153.689 129.399C152.371 129.092 151.272 128.773 150.393 128.443C149.514 128.092 148.756 127.554 148.119 126.829C147.482 126.081 147.163 125.082 147.163 123.829C147.163 122.775 147.449 121.819 148.02 120.962C148.613 120.083 149.47 119.391 150.591 118.886C151.733 118.38 153.085 118.128 154.645 118.128C156.952 118.128 158.764 118.699 160.083 119.841C161.423 120.984 162.192 122.5 162.39 124.39H157.183C157.095 123.752 156.809 123.247 156.326 122.874C155.864 122.5 155.249 122.313 154.48 122.313C153.821 122.313 153.315 122.445 152.964 122.709C152.612 122.95 152.437 123.291 152.437 123.73C152.437 124.258 152.711 124.653 153.26 124.917C153.832 125.181 154.711 125.444 155.897 125.708C157.259 126.06 158.369 126.411 159.226 126.763C160.083 127.092 160.83 127.641 161.467 128.411C162.126 129.158 162.467 130.168 162.489 131.443C162.489 132.519 162.181 133.486 161.566 134.343C160.973 135.178 160.105 135.837 158.962 136.32C157.842 136.804 156.534 137.046 155.04 137.046ZM180.339 132.695H171.704L170.32 136.782H164.421L172.792 113.645H179.318L187.689 136.782H181.724L180.339 132.695ZM178.889 128.345L176.022 119.874L173.188 128.345H178.889ZM216.636 118.391L211.66 136.782H205.431L202.53 124.851L199.531 136.782H193.335L188.325 118.391H193.961L196.565 131.542L199.663 118.391H205.628L208.759 131.476L211.33 118.391H216.636ZM217.665 127.554C217.665 125.664 218.016 124.005 218.72 122.577C219.445 121.149 220.422 120.05 221.653 119.281C222.883 118.512 224.257 118.128 225.773 118.128C227.069 118.128 228.201 118.391 229.167 118.919C230.156 119.446 230.914 120.138 231.441 120.995V118.391H237.077V136.782H231.441V134.178C230.892 135.035 230.123 135.727 229.134 136.255C228.168 136.782 227.036 137.046 225.74 137.046C224.246 137.046 222.883 136.661 221.653 135.892C220.422 135.101 219.445 133.991 218.72 132.563C218.016 131.113 217.665 129.443 217.665 127.554ZM231.441 127.587C231.441 126.18 231.046 125.071 230.255 124.258C229.486 123.445 228.541 123.038 227.421 123.038C226.3 123.038 225.344 123.445 224.553 124.258C223.784 125.049 223.4 126.147 223.4 127.554C223.4 128.96 223.784 130.08 224.553 130.915C225.344 131.728 226.3 132.135 227.421 132.135C228.541 132.135 229.486 131.728 230.255 130.915C231.046 130.102 231.441 128.993 231.441 127.587ZM259.941 118.391L248.405 145.516H242.341L246.56 136.156L239.078 118.391H245.373L249.625 129.894L253.843 118.391H259.941Z" fill="#0F4B59"/>
<path d="M128.804 151.292V152.194H125.114V155.056H128.11V155.957H125.114V159.782H124.005V151.292H128.804ZM131.385 152.023C131.174 152.023 130.995 151.95 130.849 151.804C130.703 151.658 130.63 151.479 130.63 151.268C130.63 151.057 130.703 150.878 130.849 150.732C130.995 150.586 131.174 150.513 131.385 150.513C131.588 150.513 131.759 150.586 131.897 150.732C132.043 150.878 132.116 151.057 132.116 151.268C132.116 151.479 132.043 151.658 131.897 151.804C131.759 151.95 131.588 152.023 131.385 152.023ZM131.921 153.107V159.782H130.813V153.107H131.921ZM137.732 152.985C138.544 152.985 139.202 153.233 139.705 153.728C140.209 154.216 140.461 154.922 140.461 155.848V159.782H139.364V156.006C139.364 155.34 139.198 154.833 138.865 154.483C138.532 154.126 138.077 153.948 137.501 153.948C136.916 153.948 136.449 154.13 136.1 154.496C135.759 154.861 135.589 155.393 135.589 156.091V159.782H134.48V153.107H135.589V154.057C135.808 153.716 136.104 153.452 136.478 153.265C136.859 153.079 137.277 152.985 137.732 152.985ZM142.527 156.42C142.527 155.738 142.665 155.141 142.941 154.63C143.217 154.11 143.595 153.708 144.074 153.424C144.561 153.14 145.105 152.998 145.706 152.998C146.226 152.998 146.709 153.119 147.155 153.363C147.602 153.598 147.943 153.911 148.179 154.301V150.769H149.299V159.782H148.179V158.527C147.959 158.925 147.634 159.254 147.204 159.514C146.774 159.766 146.27 159.891 145.694 159.891C145.101 159.891 144.561 159.745 144.074 159.453C143.595 159.161 143.217 158.751 142.941 158.223C142.665 157.695 142.527 157.094 142.527 156.42ZM148.179 156.432C148.179 155.929 148.077 155.49 147.874 155.117C147.671 154.743 147.395 154.459 147.046 154.264C146.705 154.061 146.327 153.96 145.913 153.96C145.499 153.96 145.121 154.057 144.78 154.252C144.439 154.447 144.167 154.731 143.964 155.105C143.761 155.478 143.66 155.917 143.66 156.42C143.66 156.932 143.761 157.378 143.964 157.76C144.167 158.133 144.439 158.422 144.78 158.625C145.121 158.82 145.499 158.917 145.913 158.917C146.327 158.917 146.705 158.82 147.046 158.625C147.395 158.422 147.671 158.133 147.874 157.76C148.077 157.378 148.179 156.936 148.179 156.432ZM160.777 157.894H157.075L156.393 159.782H155.223L158.293 151.341H159.572L162.629 159.782H161.46L160.777 157.894ZM160.461 156.993L158.926 152.705L157.391 156.993H160.461ZM179.223 151.292L176.763 159.782H175.521L173.547 152.949L171.501 159.782L170.271 159.794L167.896 151.292H169.077L170.929 158.491L172.975 151.292H174.217L176.166 158.466L178.03 151.292H179.223ZM180.692 156.42C180.692 155.738 180.83 155.141 181.106 154.63C181.382 154.11 181.76 153.708 182.239 153.424C182.726 153.14 183.266 152.998 183.859 152.998C184.444 152.998 184.951 153.123 185.382 153.375C185.812 153.627 186.133 153.944 186.344 154.325V153.107H187.464V159.782H186.344V158.539C186.125 158.929 185.796 159.254 185.357 159.514C184.927 159.766 184.423 159.891 183.847 159.891C183.254 159.891 182.718 159.745 182.239 159.453C181.76 159.161 181.382 158.751 181.106 158.223C180.83 157.695 180.692 157.094 180.692 156.42ZM186.344 156.432C186.344 155.929 186.242 155.49 186.039 155.117C185.836 154.743 185.56 154.459 185.211 154.264C184.87 154.061 184.492 153.96 184.078 153.96C183.664 153.96 183.287 154.057 182.946 154.252C182.604 154.447 182.332 154.731 182.129 155.105C181.926 155.478 181.825 155.917 181.825 156.42C181.825 156.932 181.926 157.378 182.129 157.76C182.332 158.133 182.604 158.422 182.946 158.625C183.287 158.82 183.664 158.917 184.078 158.917C184.492 158.917 184.87 158.82 185.211 158.625C185.56 158.422 185.836 158.133 186.039 157.76C186.242 157.378 186.344 156.936 186.344 156.432ZM195.756 153.107L191.737 162.924H190.592L191.907 159.709L189.216 153.107H190.446L192.541 158.515L194.611 153.107H195.756Z" fill="#63CCAB"/>
<rect x="133.492" y="32" width="73.3151" height="36.4457" rx="18.2229" transform="rotate(45 133.492 32)" fill="#60ED7B"/>
<rect x="133.998" y="83.8418" width="73.3151" height="36.4457" rx="18.2229" transform="rotate(-45 133.998 83.8418)" fill="#3499A3"/>
<path d="M159.788 58.297L185.333 83.8421L172.335 96.8406C165.281 103.895 153.844 103.895 146.79 96.8406C139.736 89.7865 139.736 78.3496 146.79 71.2955L159.788 58.297Z" fill="#287687"/>
<rect x="133.492" y="32" width="73.3151" height="36.4457" rx="18.2229" transform="rotate(45 133.492 32)" fill="#60ED7B" fill-opacity="0.5"/>
</svg>
