<svg width="320" height="200" viewBox="0 0 320 200" fill="none" xmlns="http://www.w3.org/2000/svg">
<rect width="320" height="200" fill="url(#paint0_linear_72_27)"/>
<mask id="mask0_72_27" style="mask-type:alpha" maskUnits="userSpaceOnUse" x="0" y="0" width="320" height="200">
<rect width="320" height="200" fill="black"/>
</mask>
<g mask="url(#mask0_72_27)">
<rect x="42" y="70" width="236" height="60" rx="5.33333" fill="white"/>
<path d="M75.876 90.344V94.18H70.668V110H65.88V94.18H60.672V90.344H75.876ZM83.067 96.98C83.627 96.1213 84.327 95.4493 85.167 94.964C86.007 94.46 86.9403 94.208 87.967 94.208V99.276H86.651C85.4563 99.276 84.5603 99.5373 83.963 100.06C83.3656 100.564 83.067 101.46 83.067 102.748V110H78.279V94.376H83.067V96.98ZM105.684 94.376V110H100.896V107.872C100.41 108.563 99.7475 109.123 98.9075 109.552C98.0862 109.963 97.1715 110.168 96.1635 110.168C94.9689 110.168 93.9142 109.907 92.9995 109.384C92.0849 108.843 91.3755 108.068 90.8715 107.06C90.3675 106.052 90.1155 104.867 90.1155 103.504V94.376H94.8755V102.86C94.8755 103.905 95.1462 104.717 95.6875 105.296C96.2289 105.875 96.9569 106.164 97.8715 106.164C98.8049 106.164 99.5422 105.875 100.084 105.296C100.625 104.717 100.896 103.905 100.896 102.86V94.376H105.684ZM115.479 110.224C114.116 110.224 112.903 109.991 111.839 109.524C110.775 109.057 109.935 108.423 109.319 107.62C108.703 106.799 108.357 105.884 108.283 104.876H113.015C113.071 105.417 113.323 105.856 113.771 106.192C114.219 106.528 114.769 106.696 115.423 106.696C116.02 106.696 116.477 106.584 116.795 106.36C117.131 106.117 117.299 105.809 117.299 105.436C117.299 104.988 117.065 104.661 116.599 104.456C116.132 104.232 115.376 103.989 114.331 103.728C113.211 103.467 112.277 103.196 111.531 102.916C110.784 102.617 110.14 102.16 109.599 101.544C109.057 100.909 108.787 100.06 108.787 98.996C108.787 98.1 109.029 97.288 109.515 96.56C110.019 95.8133 110.747 95.2253 111.699 94.796C112.669 94.3667 113.817 94.152 115.143 94.152C117.103 94.152 118.643 94.6373 119.763 95.608C120.901 96.5787 121.555 97.8667 121.723 99.472H117.299C117.224 98.9307 116.981 98.5013 116.571 98.184C116.179 97.8667 115.656 97.708 115.003 97.708C114.443 97.708 114.013 97.82 113.715 98.044C113.416 98.2493 113.267 98.5387 113.267 98.912C113.267 99.36 113.5 99.696 113.967 99.92C114.452 100.144 115.199 100.368 116.207 100.592C117.364 100.891 118.307 101.189 119.035 101.488C119.763 101.768 120.397 102.235 120.939 102.888C121.499 103.523 121.788 104.381 121.807 105.464C121.807 106.379 121.545 107.2 121.023 107.928C120.519 108.637 119.781 109.197 118.811 109.608C117.859 110.019 116.748 110.224 115.479 110.224ZM133.444 105.94V110H131.008C129.272 110 127.919 109.58 126.948 108.74C125.977 107.881 125.492 106.491 125.492 104.568V98.352H123.588V94.376H125.492V90.568H130.28V94.376H133.416V98.352H130.28V104.624C130.28 105.091 130.392 105.427 130.616 105.632C130.84 105.837 131.213 105.94 131.736 105.94H133.444ZM140.899 90.344V110H136.111V90.344H140.899ZM153.889 94.208C155.718 94.208 157.174 94.8053 158.257 96C159.358 97.176 159.909 98.8 159.909 100.872V110H155.149V101.516C155.149 100.471 154.878 99.6587 154.337 99.08C153.795 98.5013 153.067 98.212 152.153 98.212C151.238 98.212 150.51 98.5013 149.969 99.08C149.427 99.6587 149.157 100.471 149.157 101.516V110H144.369V94.376H149.157V96.448C149.642 95.7573 150.295 95.216 151.117 94.824C151.938 94.4133 152.862 94.208 153.889 94.208ZM169.592 110.224C168.229 110.224 167.016 109.991 165.952 109.524C164.888 109.057 164.048 108.423 163.432 107.62C162.816 106.799 162.471 105.884 162.396 104.876H167.128C167.184 105.417 167.436 105.856 167.884 106.192C168.332 106.528 168.883 106.696 169.536 106.696C170.133 106.696 170.591 106.584 170.908 106.36C171.244 106.117 171.412 105.809 171.412 105.436C171.412 104.988 171.179 104.661 170.712 104.456C170.245 104.232 169.489 103.989 168.444 103.728C167.324 103.467 166.391 103.196 165.644 102.916C164.897 102.617 164.253 102.16 163.712 101.544C163.171 100.909 162.9 100.06 162.9 98.996C162.9 98.1 163.143 97.288 163.628 96.56C164.132 95.8133 164.86 95.2253 165.812 94.796C166.783 94.3667 167.931 94.152 169.256 94.152C171.216 94.152 172.756 94.6373 173.876 95.608C175.015 96.5787 175.668 97.8667 175.836 99.472H171.412C171.337 98.9307 171.095 98.5013 170.684 98.184C170.292 97.8667 169.769 97.708 169.116 97.708C168.556 97.708 168.127 97.82 167.828 98.044C167.529 98.2493 167.38 98.5387 167.38 98.912C167.38 99.36 167.613 99.696 168.08 99.92C168.565 100.144 169.312 100.368 170.32 100.592C171.477 100.891 172.42 101.189 173.148 101.488C173.876 101.768 174.511 102.235 175.052 102.888C175.612 103.523 175.901 104.381 175.92 105.464C175.92 106.379 175.659 107.2 175.136 107.928C174.632 108.637 173.895 109.197 172.924 109.608C171.972 110.019 170.861 110.224 169.592 110.224ZM194.277 94.376V110H189.489V107.872C189.004 108.563 188.341 109.123 187.501 109.552C186.68 109.963 185.765 110.168 184.757 110.168C183.563 110.168 182.508 109.907 181.593 109.384C180.679 108.843 179.969 108.068 179.465 107.06C178.961 106.052 178.709 104.867 178.709 103.504V94.376H183.469V102.86C183.469 103.905 183.74 104.717 184.281 105.296C184.823 105.875 185.551 106.164 186.465 106.164C187.399 106.164 188.136 105.875 188.677 105.296C189.219 104.717 189.489 103.905 189.489 102.86V94.376H194.277ZM202.504 96.98C203.064 96.1213 203.764 95.4493 204.604 94.964C205.444 94.46 206.378 94.208 207.404 94.208V99.276H206.088C204.894 99.276 203.998 99.5373 203.4 100.06C202.803 100.564 202.504 101.46 202.504 102.748V110H197.716V94.376H202.504V96.98ZM224.421 101.936C224.421 102.384 224.393 102.851 224.337 103.336H213.501C213.576 104.307 213.884 105.053 214.425 105.576C214.985 106.08 215.666 106.332 216.469 106.332C217.664 106.332 218.494 105.828 218.961 104.82H224.057C223.796 105.847 223.32 106.771 222.629 107.592C221.957 108.413 221.108 109.057 220.081 109.524C219.054 109.991 217.906 110.224 216.637 110.224C215.106 110.224 213.744 109.897 212.549 109.244C211.354 108.591 210.421 107.657 209.749 106.444C209.077 105.231 208.741 103.812 208.741 102.188C208.741 100.564 209.068 99.1453 209.721 97.932C210.393 96.7187 211.326 95.7853 212.521 95.132C213.716 94.4787 215.088 94.152 216.637 94.152C218.149 94.152 219.493 94.4693 220.669 95.104C221.845 95.7387 222.76 96.644 223.413 97.82C224.085 98.996 224.421 100.368 224.421 101.936ZM219.521 100.676C219.521 99.8547 219.241 99.2013 218.681 98.716C218.121 98.2307 217.421 97.988 216.581 97.988C215.778 97.988 215.097 98.2213 214.537 98.688C213.996 99.1547 213.66 99.8173 213.529 100.676H219.521ZM229.187 110.224C228.347 110.224 227.656 109.981 227.115 109.496C226.592 108.992 226.331 108.376 226.331 107.648C226.331 106.901 226.592 106.276 227.115 105.772C227.656 105.268 228.347 105.016 229.187 105.016C230.008 105.016 230.68 105.268 231.203 105.772C231.744 106.276 232.015 106.901 232.015 107.648C232.015 108.376 231.744 108.992 231.203 109.496C230.68 109.981 230.008 110.224 229.187 110.224ZM233.897 102.16C233.897 100.555 234.196 99.1453 234.793 97.932C235.409 96.7187 236.24 95.7853 237.285 95.132C238.331 94.4787 239.497 94.152 240.785 94.152C241.887 94.152 242.848 94.376 243.669 94.824C244.509 95.272 245.153 95.86 245.601 96.588V94.376H250.389V110H245.601V107.788C245.135 108.516 244.481 109.104 243.641 109.552C242.82 110 241.859 110.224 240.757 110.224C239.488 110.224 238.331 109.897 237.285 109.244C236.24 108.572 235.409 107.629 234.793 106.416C234.196 105.184 233.897 103.765 233.897 102.16ZM245.601 102.188C245.601 100.993 245.265 100.051 244.593 99.36C243.94 98.6693 243.137 98.324 242.185 98.324C241.233 98.324 240.421 98.6693 239.749 99.36C239.096 100.032 238.769 100.965 238.769 102.16C238.769 103.355 239.096 104.307 239.749 105.016C240.421 105.707 241.233 106.052 242.185 106.052C243.137 106.052 243.94 105.707 244.593 105.016C245.265 104.325 245.601 103.383 245.601 102.188ZM256.261 92.752C255.421 92.752 254.731 92.5093 254.189 92.024C253.667 91.52 253.405 90.904 253.405 90.176C253.405 89.4293 253.667 88.8133 254.189 88.328C254.731 87.824 255.421 87.572 256.261 87.572C257.083 87.572 257.755 87.824 258.277 88.328C258.819 88.8133 259.089 89.4293 259.089 90.176C259.089 90.904 258.819 91.52 258.277 92.024C257.755 92.5093 257.083 92.752 256.261 92.752ZM258.641 94.376V110H253.853V94.376H258.641Z" fill="#0E404D"/>
</g>
<defs>
<linearGradient id="paint0_linear_72_27" x1="160" y1="0" x2="160" y2="200" gradientUnits="userSpaceOnUse">
<stop stop-color="#004F63"/>
<stop offset="1" stop-color="#002B36"/>
</linearGradient>
</defs>
</svg>
