<svg width="320" height="200" viewBox="0 0 320 200" fill="none" xmlns="http://www.w3.org/2000/svg">
<rect width="320" height="200" fill="#3498DB"/>
<path d="M73.5841 74.3009L61.9857 107H52.0176L40.4192 74.3009H48.8968L57.0017 98.9883L65.1531 74.3009H73.5841ZM88.7444 107.373C86.198 107.373 83.9001 106.829 81.8506 105.742C79.8321 104.655 78.2329 103.103 77.0528 101.084C75.9039 99.0659 75.3294 96.7058 75.3294 94.0042C75.3294 91.3336 75.9194 88.9891 77.0994 86.9706C78.2794 84.9211 79.8942 83.3529 81.9437 82.2661C83.9932 81.1792 86.2912 80.6358 88.8376 80.6358C91.3839 80.6358 93.6819 81.1792 95.7314 82.2661C97.7809 83.3529 99.3957 84.9211 100.576 86.9706C101.756 88.9891 102.346 91.3336 102.346 94.0042C102.346 96.6748 101.74 99.0348 100.529 101.084C99.3491 103.103 97.7188 104.655 95.6382 105.742C93.5887 106.829 91.2908 107.373 88.7444 107.373ZM88.7444 100.479C90.266 100.479 91.5547 99.9199 92.6105 98.8019C93.6974 97.684 94.2408 96.0848 94.2408 94.0042C94.2408 91.9236 93.7129 90.3244 92.6571 89.2065C91.6323 88.0886 90.3592 87.5296 88.8376 87.5296C87.2849 87.5296 85.9962 88.0886 84.9714 89.2065C83.9467 90.2933 83.4343 91.8926 83.4343 94.0042C83.4343 96.0848 83.9311 97.684 84.9248 98.8019C85.9496 99.9199 87.2228 100.479 88.7444 100.479ZM121.943 107L116.959 99.7801L112.767 107H104.149L112.72 93.7247L103.916 81.0084H112.86L117.844 88.1817L122.036 81.0084H130.653L121.943 94.0974L130.886 107H121.943ZM158.876 84.828C158.876 86.7222 158.441 88.4612 157.571 90.0449C156.702 91.5976 155.366 92.8552 153.565 93.8179C151.764 94.7805 149.528 95.2619 146.858 95.2619H141.92V107H133.955V74.3009H146.858C149.466 74.3009 151.671 74.7512 153.472 75.6517C155.273 76.5523 156.624 77.7944 157.525 79.3781C158.425 80.9618 158.876 82.7785 158.876 84.828ZM146.252 88.927C147.774 88.927 148.907 88.5699 149.653 87.8557C150.398 87.1414 150.771 86.1322 150.771 84.828C150.771 83.5237 150.398 82.5145 149.653 81.8003C148.907 81.0861 147.774 80.7289 146.252 80.7289H141.92V88.927H146.252ZM174.853 107.373C172.307 107.373 170.009 106.829 167.96 105.742C165.941 104.655 164.342 103.103 163.162 101.084C162.013 99.0659 161.438 96.7058 161.438 94.0042C161.438 91.3336 162.028 88.9891 163.209 86.9706C164.389 84.9211 166.003 83.3529 168.053 82.2661C170.102 81.1792 172.4 80.6358 174.947 80.6358C177.493 80.6358 179.791 81.1792 181.84 82.2661C183.89 83.3529 185.505 84.9211 186.685 86.9706C187.865 88.9891 188.455 91.3336 188.455 94.0042C188.455 96.6748 187.849 99.0348 186.638 101.084C185.458 103.103 183.828 104.655 181.747 105.742C179.698 106.829 177.4 107.373 174.853 107.373ZM174.853 100.479C176.375 100.479 177.664 99.9199 178.72 98.8019C179.806 97.684 180.35 96.0848 180.35 94.0042C180.35 91.9236 179.822 90.3244 178.766 89.2065C177.741 88.0886 176.468 87.5296 174.947 87.5296C173.394 87.5296 172.105 88.0886 171.081 89.2065C170.056 90.2933 169.543 91.8926 169.543 94.0042C169.543 96.0848 170.04 97.684 171.034 98.8019C172.059 99.9199 173.332 100.479 174.853 100.479ZM200.646 84.6882C201.422 83.4772 202.493 82.499 203.86 81.7537C205.226 81.0084 206.825 80.6358 208.657 80.6358C210.8 80.6358 212.741 81.1792 214.48 82.2661C216.219 83.3529 217.585 84.9056 218.579 86.9241C219.604 88.9425 220.116 91.2871 220.116 93.9576C220.116 96.6282 219.604 98.9883 218.579 101.038C217.585 103.056 216.219 104.624 214.48 105.742C212.741 106.829 210.8 107.373 208.657 107.373C206.856 107.373 205.257 107 203.86 106.255C202.493 105.509 201.422 104.547 200.646 103.367V119.39H192.68V81.0084H200.646V84.6882ZM212.011 93.9576C212.011 91.9702 211.452 90.4176 210.334 89.2996C209.247 88.1507 207.897 87.5762 206.282 87.5762C204.698 87.5762 203.347 88.1507 202.229 89.2996C201.143 90.4486 200.599 92.0168 200.599 94.0042C200.599 95.9916 201.143 97.5598 202.229 98.7088C203.347 99.8578 204.698 100.432 206.282 100.432C207.866 100.432 209.216 99.8578 210.334 98.7088C211.452 97.5288 212.011 95.945 212.011 93.9576ZM228.021 107.373C226.624 107.373 225.475 106.969 224.574 106.162C223.705 105.323 223.27 104.298 223.27 103.087C223.27 101.845 223.705 100.805 224.574 99.9664C225.475 99.128 226.624 98.7088 228.021 98.7088C229.388 98.7088 230.505 99.128 231.375 99.9664C232.275 100.805 232.726 101.845 232.726 103.087C232.726 104.298 232.275 105.323 231.375 106.162C230.505 106.969 229.388 107.373 228.021 107.373ZM235.857 93.9576C235.857 91.2871 236.354 88.9425 237.348 86.9241C238.372 84.9056 239.754 83.3529 241.493 82.2661C243.232 81.1792 245.173 80.6358 247.316 80.6358C249.148 80.6358 250.747 81.0084 252.114 81.7537C253.511 82.499 254.582 83.4772 255.328 84.6882V81.0084H263.293V107H255.328V103.32C254.551 104.531 253.464 105.509 252.067 106.255C250.701 107 249.101 107.373 247.269 107.373C245.158 107.373 243.232 106.829 241.493 105.742C239.754 104.624 238.372 103.056 237.348 101.038C236.354 98.9883 235.857 96.6282 235.857 93.9576ZM255.328 94.0042C255.328 92.0168 254.769 90.4486 253.651 89.2996C252.564 88.1507 251.228 87.5762 249.645 87.5762C248.061 87.5762 246.71 88.1507 245.592 89.2996C244.505 90.4176 243.962 91.9702 243.962 93.9576C243.962 95.945 244.505 97.5288 245.592 98.7088C246.71 99.8578 248.061 100.432 249.645 100.432C251.228 100.432 252.564 99.8578 253.651 98.7088C254.769 97.5598 255.328 95.9916 255.328 94.0042ZM273.061 78.3068C271.664 78.3068 270.515 77.9031 269.614 77.0957C268.745 76.2573 268.31 75.2325 268.31 74.0214C268.31 72.7793 268.745 71.7546 269.614 70.9472C270.515 70.1087 271.664 69.6895 273.061 69.6895C274.427 69.6895 275.545 70.1087 276.415 70.9472C277.315 71.7546 277.766 72.7793 277.766 74.0214C277.766 75.2325 277.315 76.2573 276.415 77.0957C275.545 77.9031 274.427 78.3068 273.061 78.3068ZM277.02 81.0084V107H269.055V81.0084H277.02Z" fill="white"/>
<path d="M104.219 132.19H102.828L104.682 129.095H105.569L104.219 132.19ZM106.427 132.19H105.05L106.905 129.095H107.791L106.427 132.19ZM110.011 129.095L111.524 137.262L115.955 129.095H117.291L112.015 138.598H110.584L108.675 129.095H110.011ZM120.247 138.72C119.619 138.72 119.065 138.593 118.583 138.339C118.111 138.075 117.743 137.712 117.479 137.248C117.215 136.775 117.084 136.23 117.084 135.612C117.084 134.767 117.279 133.994 117.67 133.294C118.061 132.585 118.597 132.026 119.279 131.617C119.969 131.208 120.737 131.004 121.583 131.004C122.21 131.004 122.764 131.136 123.246 131.399C123.737 131.654 124.114 132.017 124.377 132.49C124.65 132.954 124.786 133.499 124.786 134.126C124.786 134.971 124.586 135.744 124.187 136.444C123.787 137.143 123.241 137.698 122.551 138.107C121.86 138.516 121.092 138.72 120.247 138.72ZM120.397 137.671C120.987 137.671 121.519 137.512 121.992 137.193C122.464 136.866 122.832 136.439 123.096 135.912C123.369 135.376 123.505 134.803 123.505 134.194C123.505 133.503 123.305 132.976 122.905 132.613C122.505 132.24 122.005 132.054 121.405 132.054C120.815 132.054 120.287 132.217 119.824 132.545C119.36 132.863 119.001 133.29 118.747 133.826C118.492 134.362 118.365 134.939 118.365 135.557C118.365 136.23 118.556 136.753 118.938 137.125C119.319 137.489 119.806 137.671 120.397 137.671ZM127.849 129.913C127.649 129.913 127.481 129.85 127.345 129.722C127.217 129.586 127.154 129.418 127.154 129.218C127.154 128.945 127.254 128.714 127.454 128.523C127.654 128.323 127.885 128.223 128.149 128.223C128.358 128.223 128.526 128.286 128.653 128.414C128.781 128.541 128.844 128.709 128.844 128.918C128.844 129.191 128.744 129.427 128.544 129.627C128.344 129.818 128.113 129.913 127.849 129.913ZM128.244 131.127L126.922 138.598H125.681L127.004 131.127H128.244ZM129.227 134.849C129.364 134.076 129.636 133.403 130.045 132.831C130.463 132.249 130.977 131.799 131.586 131.481C132.195 131.163 132.854 131.004 133.563 131.004C134.481 131.004 135.194 131.227 135.703 131.672C136.221 132.117 136.507 132.735 136.562 133.526H135.226C135.18 133.072 134.994 132.713 134.667 132.449C134.349 132.186 133.917 132.054 133.372 132.054C132.663 132.054 132.045 132.299 131.518 132.79C131 133.272 130.663 133.958 130.509 134.849C130.463 135.148 130.441 135.398 130.441 135.598C130.441 136.262 130.618 136.775 130.972 137.139C131.327 137.493 131.799 137.671 132.39 137.671C132.935 137.671 133.408 137.543 133.808 137.289C134.217 137.034 134.531 136.671 134.749 136.198H136.085C135.758 136.962 135.253 137.575 134.571 138.039C133.89 138.493 133.099 138.72 132.199 138.72C131.263 138.72 130.518 138.452 129.963 137.916C129.418 137.38 129.145 136.648 129.145 135.721C129.145 135.439 129.173 135.148 129.227 134.849ZM141.885 131.004C142.512 131.004 143.052 131.127 143.507 131.372C143.97 131.608 144.32 131.945 144.557 132.381C144.802 132.808 144.925 133.299 144.925 133.853C144.925 134.044 144.902 134.276 144.857 134.549C144.82 134.785 144.761 135.03 144.679 135.285H138.708C138.69 135.467 138.681 135.598 138.681 135.68C138.681 136.307 138.867 136.798 139.24 137.153C139.621 137.498 140.117 137.671 140.726 137.671C141.262 137.671 141.73 137.548 142.13 137.303C142.539 137.048 142.848 136.712 143.057 136.294H144.393C144.066 137.012 143.561 137.598 142.88 138.052C142.207 138.498 141.426 138.72 140.535 138.72C139.599 138.72 138.844 138.452 138.272 137.916C137.708 137.371 137.427 136.63 137.427 135.694C137.427 135.43 137.454 135.148 137.508 134.849C137.645 134.076 137.922 133.399 138.34 132.817C138.758 132.236 139.272 131.79 139.881 131.481C140.499 131.163 141.167 131.004 141.885 131.004ZM143.602 134.385C143.63 134.203 143.643 134.035 143.643 133.881C143.643 133.299 143.457 132.849 143.084 132.531C142.721 132.213 142.244 132.054 141.653 132.054C141.017 132.054 140.439 132.263 139.921 132.681C139.403 133.09 139.053 133.658 138.872 134.385H143.602ZM153.118 138.72C152.491 138.72 151.936 138.593 151.455 138.339C150.982 138.075 150.614 137.712 150.35 137.248C150.087 136.775 149.955 136.23 149.955 135.612C149.955 134.767 150.15 133.994 150.541 133.294C150.932 132.585 151.468 132.026 152.15 131.617C152.841 131.208 153.609 131.004 154.454 131.004C155.081 131.004 155.635 131.136 156.117 131.399C156.608 131.654 156.985 132.017 157.249 132.49C157.521 132.954 157.658 133.499 157.658 134.126C157.658 134.971 157.458 135.744 157.058 136.444C156.658 137.143 156.113 137.698 155.422 138.107C154.731 138.516 153.963 138.72 153.118 138.72ZM153.268 137.671C153.859 137.671 154.39 137.512 154.863 137.193C155.336 136.866 155.704 136.439 155.967 135.912C156.24 135.376 156.376 134.803 156.376 134.194C156.376 133.503 156.176 132.976 155.776 132.613C155.376 132.24 154.877 132.054 154.277 132.054C153.686 132.054 153.159 132.217 152.695 132.545C152.232 132.863 151.873 133.29 151.618 133.826C151.364 134.362 151.236 134.939 151.236 135.557C151.236 136.23 151.427 136.753 151.809 137.125C152.191 137.489 152.677 137.671 153.268 137.671ZM163.174 129.218C162.62 129.218 162.211 129.327 161.947 129.545C161.693 129.754 161.525 130.104 161.443 130.595L161.347 131.127H162.915L162.738 132.149H161.17L160.025 138.598H158.784L159.916 132.149H158.962L159.139 131.127H160.093L160.189 130.595C160.343 129.759 160.67 129.15 161.17 128.768C161.67 128.377 162.397 128.182 163.352 128.182L163.174 129.218ZM174.639 131.877C174.503 132.667 174.117 133.326 173.48 133.853C172.844 134.371 171.976 134.63 170.876 134.63H169.05L168.341 138.598H167.1L168.791 129.095H171.858C172.803 129.095 173.512 129.3 173.985 129.709C174.457 130.109 174.694 130.645 174.694 131.318C174.694 131.436 174.675 131.622 174.639 131.877ZM171.054 133.649C171.735 133.649 172.267 133.494 172.649 133.185C173.03 132.867 173.271 132.431 173.371 131.877C173.399 131.713 173.412 131.563 173.412 131.427C173.412 130.527 172.835 130.077 171.681 130.077H169.854L169.227 133.649H171.054ZM179.562 131.004C180.189 131.004 180.73 131.127 181.184 131.372C181.648 131.608 181.998 131.945 182.234 132.381C182.48 132.808 182.602 133.299 182.602 133.853C182.602 134.044 182.58 134.276 182.534 134.549C182.498 134.785 182.439 135.03 182.357 135.285H176.386C176.367 135.467 176.358 135.598 176.358 135.68C176.358 136.307 176.545 136.798 176.917 137.153C177.299 137.498 177.794 137.671 178.403 137.671C178.94 137.671 179.408 137.548 179.807 137.303C180.216 137.048 180.525 136.712 180.735 136.294H182.071C181.743 137.012 181.239 137.598 180.557 138.052C179.885 138.498 179.103 138.72 178.212 138.72C177.276 138.72 176.522 138.452 175.949 137.916C175.386 137.371 175.104 136.63 175.104 135.694C175.104 135.43 175.131 135.148 175.186 134.849C175.322 134.076 175.599 133.399 176.017 132.817C176.436 132.236 176.949 131.79 177.558 131.481C178.176 131.163 178.844 131.004 179.562 131.004ZM181.28 134.385C181.307 134.203 181.321 134.035 181.321 133.881C181.321 133.299 181.134 132.849 180.762 132.531C180.398 132.213 179.921 132.054 179.33 132.054C178.694 132.054 178.117 132.263 177.599 132.681C177.081 133.09 176.731 133.658 176.549 134.385H181.28ZM186.735 138.72C186.108 138.72 185.553 138.593 185.071 138.339C184.599 138.075 184.231 137.712 183.967 137.248C183.704 136.775 183.572 136.23 183.572 135.612C183.572 134.767 183.767 133.994 184.158 133.294C184.549 132.585 185.085 132.026 185.767 131.617C186.458 131.208 187.226 131.004 188.071 131.004C188.698 131.004 189.252 131.136 189.734 131.399C190.225 131.654 190.602 132.017 190.866 132.49C191.138 132.954 191.275 133.499 191.275 134.126C191.275 134.971 191.075 135.744 190.675 136.444C190.275 137.143 189.729 137.698 189.039 138.107C188.348 138.516 187.58 138.72 186.735 138.72ZM186.885 137.671C187.475 137.671 188.007 137.512 188.48 137.193C188.952 136.866 189.32 136.439 189.584 135.912C189.857 135.376 189.993 134.803 189.993 134.194C189.993 133.503 189.793 132.976 189.393 132.613C188.993 132.24 188.493 132.054 187.894 132.054C187.303 132.054 186.776 132.217 186.312 132.545C185.849 132.863 185.49 133.29 185.235 133.826C184.981 134.362 184.853 134.939 184.853 135.557C184.853 136.23 185.044 136.753 185.426 137.125C185.808 137.489 186.294 137.671 186.885 137.671ZM194.487 132.504C194.814 132.076 195.246 131.722 195.782 131.44C196.319 131.149 196.905 131.004 197.541 131.004C198.123 131.004 198.636 131.127 199.082 131.372C199.536 131.608 199.886 131.954 200.131 132.408C200.377 132.854 200.499 133.381 200.499 133.99C200.499 134.253 200.472 134.535 200.418 134.835C200.281 135.589 200.004 136.262 199.586 136.853C199.177 137.443 198.673 137.902 198.073 138.23C197.482 138.557 196.855 138.72 196.191 138.72C195.555 138.72 195.019 138.579 194.583 138.298C194.155 138.007 193.846 137.648 193.656 137.221L192.797 142.142H191.556L193.492 131.127H194.733L194.487 132.504ZM199.15 134.835C199.186 134.644 199.204 134.435 199.204 134.208C199.204 133.544 199.009 133.026 198.618 132.654C198.227 132.272 197.723 132.081 197.105 132.081C196.65 132.081 196.209 132.195 195.782 132.422C195.355 132.64 194.987 132.963 194.678 133.39C194.378 133.808 194.178 134.294 194.078 134.849C194.042 135.039 194.024 135.248 194.024 135.476C194.024 136.139 194.219 136.666 194.61 137.057C195.01 137.439 195.514 137.63 196.123 137.63C196.587 137.63 197.027 137.521 197.446 137.303C197.873 137.075 198.236 136.753 198.536 136.335C198.845 135.907 199.05 135.408 199.15 134.835ZM204.409 128.509L202.623 138.598H201.383L203.169 128.509H204.409ZM209.305 131.004C209.932 131.004 210.473 131.127 210.927 131.372C211.391 131.608 211.74 131.945 211.977 132.381C212.222 132.808 212.345 133.299 212.345 133.853C212.345 134.044 212.322 134.276 212.277 134.549C212.24 134.785 212.181 135.03 212.099 135.285H206.128C206.11 135.467 206.101 135.598 206.101 135.68C206.101 136.307 206.287 136.798 206.66 137.153C207.042 137.498 207.537 137.671 208.146 137.671C208.682 137.671 209.15 137.548 209.55 137.303C209.959 137.048 210.268 136.712 210.477 136.294H211.813C211.486 137.012 210.982 137.598 210.3 138.052C209.627 138.498 208.846 138.72 207.955 138.72C207.019 138.72 206.265 138.452 205.692 137.916C205.128 137.371 204.847 136.63 204.847 135.694C204.847 135.43 204.874 135.148 204.928 134.849C205.065 134.076 205.342 133.399 205.76 132.817C206.178 132.236 206.692 131.79 207.301 131.481C207.919 131.163 208.587 131.004 209.305 131.004ZM211.022 134.385C211.05 134.203 211.063 134.035 211.063 133.881C211.063 133.299 210.877 132.849 210.504 132.531C210.141 132.213 209.664 132.054 209.073 132.054C208.437 132.054 207.86 132.263 207.342 132.681C206.823 133.09 206.474 133.658 206.292 134.385H211.022ZM215.264 129.095H216.655L214.8 132.19H213.914L215.264 129.095ZM217.486 129.095H218.877L217.023 132.19H216.136L217.486 129.095Z" fill="white"/>
</svg>
