<svg width="16" height="16" viewBox="0 0 16 16" fill="none" xmlns="http://www.w3.org/2000/svg">
<g clip-path="url(#clip0_3_162)">
<path d="M8.03464 9.88599L8.97731 10.8287L11.8066 7.99999L8.97797 5.17133L8.03531 6.11466L9.25331 7.33333H4.22864V8.66666H9.25331L8.03464 9.88599Z" fill="#0180FE"/>
<path fill-rule="evenodd" clip-rule="evenodd" d="M13.1853 13.1854C16.0493 10.3214 16.0493 5.67869 13.1853 2.81469C10.3213 -0.0493129 5.67865 -0.0493129 2.81465 2.81469C-0.0493541 5.67869 -0.0493541 10.3214 2.81465 13.1854C5.67865 16.0494 10.3213 16.0494 13.1853 13.1854ZM12.2426 12.2427C13.3679 11.1175 14 9.59133 14 8.00002C14 6.40871 13.3679 4.88258 12.2426 3.75735C11.1174 2.63213 9.59129 1.99998 7.99998 1.99998C6.40867 1.99998 4.88254 2.63213 3.75731 3.75735C2.63209 4.88258 1.99994 6.40871 1.99994 8.00002C1.99994 9.59133 2.63209 11.1175 3.75731 12.2427C4.88254 13.3679 6.40867 14.0001 7.99998 14.0001C9.59129 14.0001 11.1174 13.3679 12.2426 12.2427Z" fill="#0180FE"/>
</g>
<defs>
<clipPath id="clip0_3_162">
<rect width="16" height="16" fill="white" transform="matrix(0 1 -1 0 16 0)"/>
</clipPath>
</defs>
</svg>
