<svg width="30" height="30" viewBox="0 0 30 30" fill="none" xmlns="http://www.w3.org/2000/svg">
<path d="M24 4C24.663 4 25.2989 4.26339 25.7678 4.73223C26.2366 5.20107 26.5 5.83696 26.5 6.5V24C26.5 24.663 26.2366 25.2989 25.7678 25.7678C25.2989 26.2366 24.663 26.5 24 26.5H6.5C5.83696 26.5 5.20107 26.2366 4.73223 25.7678C4.26339 25.2989 4 24.663 4 24V6.5C4 5.83696 4.26339 5.20107 4.73223 4.73223C5.20107 4.26339 5.83696 4 6.5 4H24ZM23.375 23.375V16.75C23.375 15.6692 22.9457 14.6328 22.1815 13.8685C21.4172 13.1043 20.3808 12.675 19.3 12.675C18.2375 12.675 17 13.325 16.4 14.3V12.9125H12.9125V23.375H16.4V17.2125C16.4 16.25 17.175 15.4625 18.1375 15.4625C18.6016 15.4625 19.0467 15.6469 19.3749 15.9751C19.7031 16.3033 19.8875 16.7484 19.8875 17.2125V23.375H23.375ZM8.85 10.95C9.40695 10.95 9.9411 10.7288 10.3349 10.3349C10.7288 9.9411 10.95 9.40695 10.95 8.85C10.95 7.6875 10.0125 6.7375 8.85 6.7375C8.28973 6.7375 7.75241 6.96007 7.35624 7.35624C6.96007 7.75241 6.7375 8.28973 6.7375 8.85C6.7375 10.0125 7.6875 10.95 8.85 10.95ZM10.5875 23.375V12.9125H7.125V23.375H10.5875Z" fill="black"/>
</svg>
