<svg width="32" height="32" viewBox="0 0 32 32" fill="none" xmlns="http://www.w3.org/2000/svg">
<path d="M3.67438 27.4455C3.47751 27.3777 3.30672 27.2502 3.18583 27.0807C3.06494 26.9111 2.99997 26.7081 3 26.4999C3 21.9312 3.9175 18.2774 5.72813 15.6393C7.91563 12.4518 11.3663 10.7355 16 10.5224V5.49991C16 5.3041 16.0575 5.1126 16.1654 4.94917C16.2732 4.78575 16.4267 4.65758 16.6067 4.58057C16.7868 4.50357 16.9855 4.48111 17.1781 4.51599C17.3708 4.55087 17.549 4.64156 17.6906 4.77679L28.6906 15.2768C28.7884 15.3702 28.8662 15.4824 28.9193 15.6067C28.9725 15.731 28.9999 15.8647 28.9999 15.9999C28.9999 16.1351 28.9725 16.2689 28.9193 16.3932C28.8662 16.5174 28.7884 16.6297 28.6906 16.723L17.6906 27.223C17.549 27.3583 17.3708 27.449 17.1781 27.4838C16.9855 27.5187 16.7868 27.4963 16.6067 27.4193C16.4267 27.3422 16.2732 27.2141 16.1654 27.0506C16.0575 26.8872 16 26.6957 16 26.4999V21.5143C13.1875 21.5993 11.0625 22.0549 9.37062 22.9293C7.5425 23.8743 6.21688 25.2862 4.78813 27.1168C4.65995 27.2809 4.48374 27.4009 4.28408 27.4601C4.08442 27.5192 3.87127 27.5146 3.67438 27.4468V27.4455Z" fill="white"/>
</svg>
