<svg width="100" height="100" viewBox="0 0 100 100" fill="none" xmlns="http://www.w3.org/2000/svg">
<rect width="100" height="100" rx="16" fill="#0180FE"/>
<path d="M40.16 71H30.56V28.12H54.24C57.7813 28.12 60.7893 28.632 63.264 29.656C65.7387 30.6373 67.616 32.088 68.896 34.008C70.176 35.928 70.816 38.2533 70.816 40.984C70.816 43.3307 70.368 45.336 69.472 47C68.576 48.664 67.232 50.008 65.44 51.032C63.648 52.0133 61.408 52.632 58.72 52.888V53.4C60.64 53.912 62.0693 54.68 63.008 55.704C63.9467 56.728 64.8213 57.9867 65.632 59.48L71.84 71H60.704L54.816 59.864C54.2187 58.7547 53.6 57.88 52.96 57.24C52.32 56.6 51.488 56.152 50.464 55.896C49.4827 55.5973 48.16 55.448 46.496 55.448H40.16V71ZM40.16 36.76V48.216H54.176C56.4373 48.216 58.1013 47.832 59.168 47.064C60.2347 46.2533 60.768 44.7173 60.768 42.456C60.768 40.3227 60.2347 38.8507 59.168 38.04C58.1013 37.1867 56.4373 36.76 54.176 36.76H40.16Z" fill="white"/>
</svg>
